<svg width="20" height="28" viewBox="0 0 20 28" fill="none" xmlns="http://www.w3.org/2000/svg">
<g id="Group 861">
<circle id="Ellipse 680" cx="10" cy="10.1353" r="9" stroke="#007CBF" stroke-width="2"/>
<g id="Subtract">
<path fill-rule="evenodd" clip-rule="evenodd" d="M5.7112 18.1557C5.57589 18.0914 5.41699 18.1884 5.41699 18.3382V25.9284C5.41699 26.1066 5.63242 26.1958 5.75841 26.0698L9.8589 21.9693C9.93701 21.8912 10.0636 21.8912 10.1417 21.9693L14.2422 26.0698C14.3682 26.1958 14.5837 26.1066 14.5837 25.9284V18.338C14.5837 18.1882 14.4248 18.0912 14.2894 18.1555C12.9896 18.7736 11.5353 19.1196 10.0001 19.1196C8.46515 19.1196 7.01095 18.7737 5.7112 18.1557Z" fill="#007CBF"/>
<path d="M14.2894 18.1555L13.86 17.2524L14.2894 18.1555ZM14.2422 26.0698L13.5351 26.7769L14.2422 26.0698ZM9.8589 21.9693L10.566 22.6764L9.8589 21.9693ZM10.1417 21.9693L9.43464 22.6764L10.1417 21.9693ZM5.75841 26.0698L6.46552 26.7769L5.75841 26.0698ZM6.41699 25.9284V18.3382H4.41699V25.9284H6.41699ZM9.1518 21.2622L5.05131 25.3627L6.46552 26.7769L10.566 22.6764L9.1518 21.2622ZM14.9493 25.3627L10.8489 21.2622L9.43464 22.6764L13.5351 26.7769L14.9493 25.3627ZM13.5837 18.338V25.9284H15.5837V18.338H13.5837ZM13.86 17.2524C12.6915 17.8081 11.3836 18.1196 10.0001 18.1196V20.1196C11.6869 20.1196 13.2877 19.7392 14.7189 19.0586L13.86 17.2524ZM10.0001 18.1196C8.61682 18.1196 7.30904 17.8082 6.14062 17.2526L5.28179 19.0588C6.71286 19.7393 8.31348 20.1196 10.0001 20.1196V18.1196ZM15.5837 18.338C15.5837 17.427 14.6348 16.884 13.86 17.2524L14.7189 19.0586C14.2147 19.2984 13.5837 18.9494 13.5837 18.338H15.5837ZM13.5351 26.7769C14.2911 27.5329 15.5837 26.9975 15.5837 25.9284H13.5837C13.5837 25.2157 14.4454 24.8587 14.9493 25.3627L13.5351 26.7769ZM10.566 22.6764C10.2536 22.9888 9.74706 22.9888 9.43464 22.6764L10.8489 21.2622C10.3802 20.7936 9.62043 20.7936 9.1518 21.2622L10.566 22.6764ZM6.41699 18.3382C6.41699 18.9496 5.78598 19.2986 5.28179 19.0588L6.14062 17.2526C5.3658 16.8842 4.41699 17.4272 4.41699 18.3382H6.41699ZM4.41699 25.9284C4.41699 26.9975 5.70956 27.5329 6.46552 26.7769L5.05131 25.3627C5.55528 24.8587 6.41699 25.2157 6.41699 25.9284H4.41699Z" fill="#007CBF"/>
</g>
<path id="Star 1" d="M9.80979 5.09566C9.86966 4.9114 10.1303 4.9114 10.1902 5.09566L11.218 8.25884C11.2448 8.34124 11.3216 8.39703 11.4082 8.39703H14.7342C14.9279 8.39703 15.0085 8.64496 14.8517 8.75884L12.161 10.7138C12.0909 10.7647 12.0615 10.855 12.0883 10.9374L13.1161 14.1006C13.176 14.2848 12.9651 14.4381 12.8083 14.3242L10.1176 12.3692C10.0475 12.3183 9.95254 12.3183 9.88244 12.3692L7.19169 14.3242C7.03495 14.4381 6.82405 14.2848 6.88392 14.1006L7.9117 10.9374C7.93847 10.855 7.90914 10.7647 7.83904 10.7138L5.14829 8.75884C4.99154 8.64496 5.0721 8.39703 5.26584 8.39703H8.5918C8.67845 8.39703 8.75524 8.34124 8.78201 8.25884L9.80979 5.09566Z" fill="#007CBF"/>
</g>
</svg>
