<svg width="9" height="8" viewBox="0 0 9 8" fill="none" xmlns="http://www.w3.org/2000/svg">
<path d="M4.33433 1.96051L2.58651 3.70835L7.52858 3.70835C7.70619 3.70835 7.87653 3.77887 8.00211 3.90445C8.1277 4.03004 8.19824 4.2004 8.19824 4.378C8.19824 4.55561 8.1277 4.72593 8.00211 4.85151C7.87653 4.9771 7.70619 5.04766 7.52858 5.04766L2.63339 5.04766L4.3745 6.78876C4.45126 6.84632 4.51475 6.91971 4.56068 7.00395C4.6066 7.08819 4.63388 7.18132 4.64069 7.27702C4.64749 7.37272 4.63365 7.46875 4.6001 7.55863C4.56655 7.64852 4.51408 7.73014 4.44623 7.79798C4.37839 7.86583 4.29675 7.91832 4.20686 7.95187C4.11698 7.98542 4.02093 7.99926 3.92523 7.99246C3.82953 7.98565 3.73642 7.95835 3.65218 7.91243C3.56794 7.8665 3.49455 7.80305 3.43699 7.72629L0.590942 4.87354L0.11547 4.40478L0.590942 3.93601L3.41019 1.13684C3.53537 1.01414 3.70368 0.945436 3.87896 0.945436C4.05425 0.945436 4.22253 1.01414 4.34771 1.13684C4.40529 1.19303 4.45031 1.26079 4.47979 1.33565C4.50928 1.4105 4.52256 1.49075 4.51876 1.57112C4.51497 1.65148 4.49419 1.7301 4.45778 1.80184C4.42137 1.87358 4.37016 1.93682 4.30753 1.98732" fill="#D24700"/>
</svg>
