<svg
                                                        xmlns="http://www.w3.org/2000/svg"
                                                        width="35px"
                                                        height="50px"
                                                        viewBox="0 0 35 50"
                                                    >
                                                        <metadata>
                                                            <!--?xpacket begin="﻿" id="W5M0MpCehiHzreSzNTczkc9d" /-->
                                                            <x:xmpmeta
                                                                xmlns:x="adobe:ns:meta/"
                                                                x:xmptk="Adobe XMP Core 5.6-c138 79.159824, 2016/09/14-01:09:01        "
                                                            >
                                                                <rdf:rdf
                                                                    xmlns:rdf="http://www.w3.org/1999/02/22-rdf-syntax-ns#"
                                                                >
                                                                    <rdf:description
                                                                        rdf:about=""
                                                                    ></rdf:description>
                                                                </rdf:rdf>
                                                            </x:xmpmeta>
                                                            <!--?xpacket end="w" /-->
                                                        </metadata>

                                                        <path
                                                            id="Icon_lightbulb"
                                                            class="cls-1"
                                                            d="M27.816,27.696 C25.766,29.879 24.567,32.570 24.391,35.330 L19.122,35.330 L19.122,27.182 L25.730,20.475 C26.367,19.829 26.367,18.787 25.730,18.144 C25.097,17.497 24.070,17.497 23.433,18.144 L17.498,24.168 L11.559,18.144 C10.925,17.497 9.896,17.497 9.262,18.144 C8.629,18.787 8.629,19.829 9.262,20.475 L15.873,27.182 L15.873,35.330 L10.600,35.330 C10.425,32.573 9.223,29.883 7.173,27.690 C4.032,24.336 2.683,19.766 3.473,15.143 C4.467,9.343 8.947,4.690 14.619,3.572 C18.891,2.712 23.254,3.820 26.549,6.583 C29.849,9.343 31.744,13.412 31.744,17.745 C31.744,21.464 30.346,24.999 27.816,27.696 M28.618,4.034 C24.567,0.648 19.245,-0.685 13.999,0.331 C7.014,1.712 1.494,7.437 0.273,14.576 C-0.695,20.238 0.958,25.847 4.818,29.962 C6.468,31.723 7.374,33.879 7.374,36.029 L7.374,36.979 C7.374,37.892 8.102,38.628 8.999,38.628 L25.993,38.628 C26.893,38.628 27.618,37.892 27.618,36.979 L27.618,36.029 C27.618,33.876 28.524,31.723 30.171,29.968 C33.280,26.661 34.992,22.315 34.992,17.745 C34.992,12.423 32.669,7.427 28.618,4.034 M23.531,46.690 L11.465,46.690 C10.565,46.690 9.840,47.425 9.840,48.338 C9.840,49.248 10.565,49.987 11.465,49.987 L23.531,49.987 C24.427,49.987 25.155,49.248 25.155,48.338 C25.155,47.425 24.427,46.690 23.531,46.690 M25.249,41.203 L9.746,41.203 C8.849,41.203 8.122,41.938 8.122,42.852 C8.122,43.761 8.849,44.500 9.746,44.500 L25.249,44.500 C26.146,44.500 26.873,43.761 26.873,42.852 C26.873,41.938 26.146,41.203 25.249,41.203 "
                                                        ></path>
                                                    </svg>