<svg width="12" height="11" viewBox="0 0 12 11" fill="none" xmlns="http://www.w3.org/2000/svg">
<path d="M5.73652 1.58409L8.3314 4.31172L0.9942 4.31172C0.730521 4.31172 0.477627 4.42177 0.291178 4.61776C0.10473 4.81374 -2.58789e-07 5.0796 -2.46674e-07 5.35677C-2.34558e-07 5.63393 0.10473 5.89973 0.291178 6.09571C0.477627 6.2917 0.730522 6.40181 0.9942 6.40181L8.2618 6.40181L5.67687 9.11891C5.56292 9.20875 5.46865 9.32328 5.40047 9.45474C5.33229 9.5862 5.29178 9.73153 5.28169 9.88088C5.27159 10.0302 5.29214 10.1801 5.34194 10.3204C5.39175 10.4606 5.46966 10.588 5.57038 10.6939C5.6711 10.7998 5.79231 10.8817 5.92576 10.934C6.05921 10.9864 6.2018 11.008 6.34388 10.9974C6.48596 10.9868 6.6242 10.9441 6.74926 10.8725C6.87432 10.8008 6.98328 10.7018 7.06875 10.582L11.2941 6.13009L12 5.39854L11.2941 4.667L7.10852 0.298705C6.92268 0.107224 6.67281 6.61997e-07 6.41257 6.73372e-07C6.15234 6.84747e-07 5.90249 0.107224 5.71665 0.298705C5.63116 0.386386 5.56433 0.492139 5.52056 0.608953C5.47678 0.725768 5.45706 0.851006 5.4627 0.976416C5.46834 1.10183 5.49918 1.22452 5.55324 1.33648C5.60729 1.44844 5.68333 1.54712 5.7763 1.62594" fill="#007CBF"/>
</svg>
