<svg width="32" height="32" viewBox="0 0 32 32" fill="none" xmlns="http://www.w3.org/2000/svg">
<path d="M21 28C22.1046 28 23 27.1046 23 26C23 24.8954 22.1046 24 21 24C19.8954 24 19 24.8954 19 26C19 27.1046 19.8954 28 21 28Z" fill="white"/>
<path d="M21 8C22.1046 8 23 7.10457 23 6C23 4.89543 22.1046 4 21 4C19.8954 4 19 4.89543 19 6C19 7.10457 19.8954 8 21 8Z" fill="white"/>
<path d="M4 18C5.10457 18 6 17.1046 6 16C6 14.8954 5.10457 14 4 14C2.89543 14 2 14.8954 2 16C2 17.1046 2.89543 18 4 18Z" fill="white"/>
<path d="M28 12C27.1156 12.0026 26.2571 12.2986 25.5589 12.8415C24.8608 13.3844 24.3624 14.1435 24.142 15H19.858C19.7164 14.4361 19.4525 13.9101 19.085 13.4595C18.7175 13.0089 18.2555 12.6446 17.7315 12.3924C17.2076 12.1402 16.6346 12.0064 16.0532 12.0002C15.4718 11.9941 14.8961 12.1159 14.367 12.357L11.19 8.387C11.7126 7.7007 11.997 6.86262 12 6C12 5.20888 11.7654 4.43552 11.3259 3.77772C10.8864 3.11992 10.2616 2.60723 9.53074 2.30448C8.79983 2.00173 7.99556 1.92252 7.21964 2.07686C6.44372 2.2312 5.73098 2.61216 5.17157 3.17157C4.61216 3.73098 4.2312 4.44372 4.07686 5.21964C3.92252 5.99556 4.00173 6.79983 4.30448 7.53074C4.60723 8.26164 5.11992 8.88635 5.77772 9.32588C6.43552 9.76541 7.20888 10 8 10C8.56387 9.99869 9.12096 9.87698 9.634 9.643L12.81 13.613C12.285 14.298 12.0005 15.137 12.0005 16C12.0005 16.863 12.285 17.702 12.81 18.387L9.634 22.357C9.12096 22.123 8.56387 22.0013 8 22C7.20888 22 6.43552 22.2346 5.77772 22.6741C5.11992 23.1136 4.60723 23.7384 4.30448 24.4693C4.00173 25.2002 3.92252 26.0044 4.07686 26.7804C4.2312 27.5563 4.61216 28.269 5.17157 28.8284C5.73098 29.3878 6.44372 29.7688 7.21964 29.9231C7.99556 30.0775 8.79983 29.9983 9.53074 29.6955C10.2616 29.3928 10.8864 28.8801 11.3259 28.2223C11.7654 27.5645 12 26.7911 12 26C11.9971 25.1374 11.7127 24.2993 11.19 23.613L14.366 19.643C14.8952 19.8843 15.4709 20.0062 16.0525 20.0002C16.634 19.9942 17.2071 19.8603 17.7312 19.6081C18.2552 19.3559 18.7174 18.9915 19.0849 18.5408C19.4525 18.0901 19.7164 17.5641 19.858 17H24.142C24.3303 17.7226 24.7175 18.3778 25.2595 18.8914C25.8015 19.405 26.4766 19.7563 27.2083 19.9055C27.9399 20.0547 28.6987 19.9957 29.3985 19.7353C30.0983 19.4749 30.7111 19.0234 31.1673 18.4323C31.6234 17.8411 31.9047 17.1339 31.9791 16.3909C32.0535 15.6479 31.9181 14.899 31.5882 14.2291C31.2584 13.5592 30.7473 12.9952 30.113 12.6012C29.4787 12.2072 28.7467 11.9989 28 12ZM6 6C6 5.60444 6.1173 5.21776 6.33706 4.88886C6.55683 4.55996 6.86918 4.30362 7.23463 4.15224C7.60009 4.00087 8.00222 3.96126 8.39018 4.03843C8.77814 4.1156 9.13451 4.30608 9.41422 4.58579C9.69392 4.86549 9.8844 5.22186 9.96157 5.60982C10.0387 5.99778 9.99914 6.39992 9.84776 6.76537C9.69639 7.13082 9.44004 7.44318 9.11114 7.66294C8.78224 7.8827 8.39556 8 8 8C7.46973 7.99947 6.96133 7.78859 6.58637 7.41363C6.21142 7.03867 6.00053 6.53027 6 6ZM8 28C7.60444 28 7.21776 27.8827 6.88886 27.6629C6.55996 27.4432 6.30362 27.1308 6.15224 26.7654C6.00087 26.3999 5.96126 25.9978 6.03843 25.6098C6.1156 25.2219 6.30608 24.8655 6.58579 24.5858C6.86549 24.3061 7.22186 24.1156 7.60982 24.0384C7.99778 23.9613 8.39992 24.0009 8.76537 24.1522C9.13082 24.3036 9.44318 24.56 9.66294 24.8889C9.8827 25.2178 10 25.6044 10 26C9.99947 26.5303 9.78859 27.0387 9.41363 27.4136C9.03867 27.7886 8.53027 27.9995 8 28ZM16 18C15.6044 18 15.2178 17.8827 14.8889 17.6629C14.56 17.4432 14.3036 17.1308 14.1522 16.7654C14.0009 16.3999 13.9613 15.9978 14.0384 15.6098C14.1156 15.2219 14.3061 14.8655 14.5858 14.5858C14.8655 14.3061 15.2219 14.1156 15.6098 14.0384C15.9978 13.9613 16.3999 14.0009 16.7654 14.1522C17.1308 14.3036 17.4432 14.56 17.6629 14.8889C17.8827 15.2178 18 15.6044 18 16C17.9995 16.5303 17.7886 17.0387 17.4136 17.4136C17.0387 17.7886 16.5303 17.9995 16 18ZM28 18C27.6044 18 27.2178 17.8827 26.8889 17.6629C26.56 17.4432 26.3036 17.1308 26.1522 16.7654C26.0009 16.3999 25.9613 15.9978 26.0384 15.6098C26.1156 15.2219 26.3061 14.8655 26.5858 14.5858C26.8655 14.3061 27.2219 14.1156 27.6098 14.0384C27.9978 13.9613 28.3999 14.0009 28.7654 14.1522C29.1308 14.3036 29.4432 14.56 29.6629 14.8889C29.8827 15.2178 30 15.6044 30 16C29.9995 16.5303 29.7886 17.0387 29.4136 17.4136C29.0387 17.7886 28.5303 17.9995 28 18Z" fill="white"/>
</svg>
