<svg width="47" height="50" viewBox="0 0 47 50" fill="none" xmlns="http://www.w3.org/2000/svg">
<path d="M0.489441 14.4968C0.367408 14.4376 0.316275 14.2907 0.376357 14.169C2.79729 9.2649 6.77855 5.31011 11.6872 2.93933C16.6693 0.53309 22.3104 -0.0982249 27.6834 1.14914C33.0564 2.39651 37.8416 5.44835 41.2526 9.80311C44.6636 14.1579 46.4975 19.5565 46.453 25.1117C46.4084 30.667 44.488 36.0483 41.0073 40.3714C37.5266 44.6945 32.6928 47.7021 27.3002 48.9C21.9076 50.0979 16.2771 49.4148 11.3339 46.963C6.46373 44.5473 2.54626 40.5563 0.204208 35.6303C0.145994 35.5079 0.199118 35.3617 0.321845 35.3037C0.44578 35.2452 0.593506 35.2989 0.652333 35.4225C2.94734 40.2451 6.78391 44.1524 11.5529 46.5179C16.3959 48.9201 21.9123 49.5894 27.1957 48.4157C32.479 47.2421 37.2148 44.2954 40.625 40.0599C44.0351 35.8244 45.9166 30.5521 45.9603 25.1095C46.004 19.6668 44.2072 14.3776 40.8653 10.1111C37.5234 5.84454 32.8352 2.85455 27.5711 1.63245C22.307 0.410365 16.7802 1.02889 11.8991 3.38637C7.09195 5.70809 3.19266 9.58038 0.820494 14.3822C0.760027 14.5046 0.612189 14.5564 0.489441 14.4968Z" fill="#F57B20"/>
</svg>
