<svg width="1728" height="310" viewBox="0 0 1728 310" fill="none" xmlns="http://www.w3.org/2000/svg">
<g clip-path="url(#clip0_514_21014)">
<rect width="1728" height="310" fill="white"/>
<rect y="-60" width="1728" height="2236" fill="white"/>
<rect opacity="0.05" y="44" width="1733.67" height="1671.5" fill="#003A70"/>
<mask id="mask0_514_21014" style="mask-type:alpha" maskUnits="userSpaceOnUse" x="-12" y="-60" width="1740" height="594">
<rect x="-11.5" y="-59.8398" width="1739.5" height="593.358" fill="#D9D9D9"/>
</mask>
<g mask="url(#mask0_514_21014)">
<path d="M3079.63 -9476.75L3328.98 -10549.4L-2452.42 1490.83L-3.69214 169.93C206.252 196.67 417.728 209.993 629.404 209.82C1788.65 209 2914.4 -174.953 3827.97 -881.099C4741.55 -1587.24 5390.59 -2575.12 5672.07 -3687.91C5953.55 -4800.7 5851.34 -5974.64 5381.67 -7023.4C4912.01 -8072.15 4101.79 -8935.62 3079.63 -9476.75ZM1183.35 -1279.51L2737.71 -7996.28C3362.09 -7579.01 3844.26 -6984.55 4120.82 -6291.03C4397.38 -5597.52 4455.38 -4837.42 4287.21 -4110.68C4119.03 -3383.93 3732.53 -2724.56 3178.55 -2219.24C2624.56 -1713.93 1929.02 -1386.33 1183.35 -1279.51Z" fill="white"/>
</g>
</g>
<defs>
<clipPath id="clip0_514_21014">
<rect width="1728" height="310" fill="white"/>
</clipPath>
</defs>
</svg>
