<svg width="1728" height="318" viewBox="0 0 1728 318" fill="none" xmlns="http://www.w3.org/2000/svg">
<g clip-path="url(#clip0_514_20968)">
<rect width="1728" height="318" fill="white"/>
<rect y="-1287" width="1728" height="1731" fill="white"/>
<rect opacity="0.05" x="-0.203125" y="-1287" width="1733.67" height="1333.6" fill="#003A70"/>
<path d="M1257.33 -9939.75L1506.68 -11012.4L-4274.73 1027.83L-1825.99 -293.068C-1616.05 -266.328 -1404.57 -253.005 -1192.9 -253.178C-33.6509 -253.998 1092.1 -637.951 2005.67 -1344.1C2919.24 -2050.24 3568.29 -3038.11 3849.77 -4150.9C4131.25 -5263.69 4029.04 -6437.64 3559.37 -7486.4C3089.7 -8535.15 2279.49 -9398.62 1257.33 -9939.75ZM-638.952 -1742.51L915.404 -8459.28C1539.79 -8042.01 2021.96 -7447.55 2298.52 -6754.03C2575.08 -6060.52 2633.08 -5300.42 2464.9 -4573.67C2296.72 -3846.93 1910.23 -3187.55 1356.25 -2682.24C802.26 -2176.92 106.715 -1849.32 -638.952 -1742.51Z" fill="white"/>
<mask id="mask0_514_20968" style="mask-type:alpha" maskUnits="userSpaceOnUse" x="-6" y="-90" width="1740" height="594">
<rect x="-5.91602" y="-89.4014" width="1739.5" height="593.358" fill="#D9D9D9"/>
</mask>
<g mask="url(#mask0_514_20968)">
<path d="M3085.22 -9506.31L3334.57 -10579L-2446.84 1461.26L1.89233 140.368C211.837 167.108 423.312 180.432 634.989 180.259C1794.24 179.438 2919.99 -204.515 3833.56 -910.66C4747.13 -1616.81 5396.17 -2604.68 5677.66 -3717.47C5959.14 -4830.26 5856.93 -6004.2 5387.26 -7052.96C4917.59 -8101.71 4107.38 -8965.18 3085.22 -9506.31ZM1188.93 -1309.07L2743.29 -8025.84C3367.68 -7608.58 3849.85 -7014.11 4126.41 -6320.6C4402.97 -5627.08 4460.97 -4866.98 4292.79 -4140.24C4124.61 -3413.49 3738.12 -2754.12 3184.13 -2248.8C2630.15 -1743.49 1934.6 -1415.89 1188.93 -1309.07Z" fill="#F2F5F8"/>
</g>
</g>
<defs>
<clipPath id="clip0_514_20968">
<rect width="1728" height="318" fill="white"/>
</clipPath>
</defs>
</svg>
