<svg width="1728" height="319" viewBox="0 0 1728 319" fill="none" xmlns="http://www.w3.org/2000/svg">
<g clip-path="url(#clip0_514_21058)">
<rect width="1728" height="319" fill="white"/>
<rect y="-1177" width="1728" height="1772" fill="white"/>
<rect y="-1059" width="1728" height="1654" rx="10" fill="#EEEFEF"/>
<mask id="mask0_514_21058" style="mask-type:alpha" maskUnits="userSpaceOnUse" x="-6" y="-75" width="1741" height="284">
<rect x="-5.375" y="-74.7261" width="1739.5" height="283.478" fill="#EEEFEF"/>
</mask>
<g mask="url(#mask0_514_21058)">
<path d="M3085.76 -9491.64L3335.11 -10564.3L-2446.3 1475.94L2.43286 155.043C212.377 181.783 423.853 195.106 635.529 194.934C1794.78 194.113 2920.53 -189.84 3834.1 -895.985C4747.67 -1602.13 5396.71 -2590 5678.2 -3702.79C5959.68 -4815.58 5857.47 -5989.53 5387.8 -7038.28C4918.13 -8087.04 4107.92 -8950.51 3085.76 -9491.64ZM1189.48 -1294.4L2743.83 -8011.17C3368.22 -7593.9 3850.39 -6999.44 4126.95 -6305.92C4403.51 -5612.41 4461.51 -4852.31 4293.33 -4125.56C4125.15 -3398.82 3738.66 -2739.44 3184.67 -2234.13C2630.69 -1728.81 1935.14 -1401.21 1189.48 -1294.4Z" fill="#003A70"/>
</g>
<rect x="-0.625" y="-282.805" width="1734" height="352.787" fill="#003A70"/>
</g>
<defs>
<clipPath id="clip0_514_21058">
<rect width="1728" height="319" fill="white"/>
</clipPath>
</defs>
</svg>
