<svg width="1728" height="353" viewBox="0 0 1728 353" fill="none" xmlns="http://www.w3.org/2000/svg">
<g clip-path="url(#clip0_514_21041)">
<rect width="1728" height="353" fill="white"/>
<rect y="-894" width="1728" height="1772" fill="white"/>
<rect y="-776" width="1728" height="1654" rx="10" fill="#EEEFEF"/>
<mask id="mask0_514_21041" style="mask-type:alpha" maskUnits="userSpaceOnUse" x="-6" y="208" width="1741" height="284">
<rect x="-5.375" y="208.274" width="1739.5" height="283.478" fill="#EEEFEF"/>
</mask>
<g mask="url(#mask0_514_21041)">
<path d="M3085.76 -9208.64L3335.11 -10281.3L-2446.3 1758.94L2.43286 438.043C212.377 464.783 423.853 478.106 635.529 477.934C1794.78 477.113 2920.53 93.1602 3834.1 -612.985C4747.67 -1319.13 5396.71 -2307 5678.2 -3419.79C5959.68 -4532.58 5857.47 -5706.53 5387.8 -6755.28C4918.13 -7804.04 4107.92 -8667.51 3085.76 -9208.64ZM1189.48 -1011.4L2743.83 -7728.17C3368.22 -7310.9 3850.39 -6716.44 4126.95 -6022.92C4403.51 -5329.41 4461.51 -4569.31 4293.33 -3842.56C4125.15 -3115.82 3738.66 -2456.44 3184.67 -1951.13C2630.69 -1445.81 1935.14 -1118.21 1189.48 -1011.4Z" fill="#003A70"/>
</g>
<rect x="-0.625" y="0.195312" width="1734" height="352.787" fill="#003A70"/>
<mask id="mask1_514_21041" style="mask-type:alpha" maskUnits="userSpaceOnUse" x="-9" y="-1" width="1741" height="284">
<rect x="-8.125" y="-0.804688" width="1739.5" height="283.478" fill="#003A70"/>
</mask>
<g mask="url(#mask1_514_21041)">
<path d="M3050.55 -9459.71L3299.9 -10532.4L-2481.51 1507.86L-32.7732 186.965C177.171 213.705 388.647 227.028 600.323 226.855C1759.57 226.035 2885.32 -157.918 3798.89 -864.063C4712.47 -1570.21 5361.51 -2558.08 5642.99 -3670.87C5924.47 -4783.66 5822.26 -5957.61 5352.59 -7006.36C4882.93 -8055.12 4072.71 -8918.59 3050.55 -9459.71ZM1154.27 -1262.47L2708.63 -7979.24C3333.01 -7561.98 3815.18 -6967.51 4091.74 -6274C4368.3 -5580.49 4426.3 -4820.39 4258.12 -4093.64C4089.95 -3366.9 3703.45 -2707.52 3149.47 -2202.21C2595.48 -1696.89 1899.94 -1369.29 1154.27 -1262.47Z" fill="white"/>
</g>
</g>
<defs>
<clipPath id="clip0_514_21041">
<rect width="1728" height="353" fill="white"/>
</clipPath>
</defs>
</svg>
