<svg width="1728" height="310" viewBox="0 0 1728 310" fill="none" xmlns="http://www.w3.org/2000/svg">
<g clip-path="url(#clip0_514_21004)">
<rect width="1728" height="310" fill="white"/>
<rect y="-1834" width="1728" height="2236" fill="white"/>
<mask id="mask0_514_21004" style="mask-type:alpha" maskUnits="userSpaceOnUse" x="-9" y="-59" width="1740" height="594">
<rect x="-8.75" y="-58.4966" width="1739.5" height="593.358" fill="#D9D9D9"/>
</mask>
<g mask="url(#mask0_514_21004)">
<path d="M3082.38 -9475.41L3331.73 -10548.1L-2449.67 1492.17L-0.942139 171.273C209.002 198.014 420.478 211.337 632.154 211.164C1791.4 210.344 2917.15 -173.609 3830.72 -879.755C4744.3 -1585.9 5393.34 -2573.77 5674.82 -3686.56C5956.3 -4799.35 5854.09 -5973.3 5384.42 -7022.05C4914.76 -8070.81 4104.54 -8934.28 3082.38 -9475.41ZM1186.1 -1278.17L2740.46 -7994.94C3364.84 -7577.67 3847.01 -6983.21 4123.57 -6289.69C4400.13 -5596.18 4458.13 -4836.08 4289.96 -4109.33C4121.78 -3382.59 3735.28 -2723.21 3181.3 -2217.9C2627.31 -1712.58 1931.77 -1384.98 1186.1 -1278.17Z" fill="#F2F5F8"/>
</g>
</g>
<defs>
<clipPath id="clip0_514_21004">
<rect width="1728" height="310" fill="white"/>
</clipPath>
</defs>
</svg>
