<svg width="1728" height="963" viewBox="0 0 1728 963" fill="none" xmlns="http://www.w3.org/2000/svg">
<g clip-path="url(#clip0_514_21108)">
<rect width="1728" height="963" fill="white"/>
<rect width="1728" height="1915" fill="white"/>
<rect y="-135.676" width="1733.67" height="1757.68" fill="#F2F5F8"/>
<path d="M1257.33 -8652.75L1506.68 -9725.42L-4274.73 2314.83L-1825.99 993.932C-1616.05 1020.67 -1404.57 1034 -1192.9 1033.82C-33.6499 1033 1092.1 649.049 2005.67 -57.0967C2919.25 -763.242 3568.29 -1751.11 3849.77 -2863.9C4131.25 -3976.69 4029.04 -5150.64 3559.37 -6199.4C3089.71 -7248.15 2279.49 -8111.62 1257.33 -8652.75ZM-638.951 -455.508L915.405 -7172.28C1539.79 -6755.01 2021.96 -6160.55 2298.52 -5467.03C2575.08 -4773.52 2633.08 -4013.42 2464.9 -3286.67C2296.73 -2559.93 1910.23 -1900.55 1356.25 -1395.24C802.261 -889.924 106.716 -562.323 -638.951 -455.508Z" fill="white"/>
</g>
<defs>
<clipPath id="clip0_514_21108">
<rect width="1728" height="963" fill="white"/>
</clipPath>
</defs>
</svg>
