<svg width="22" height="23" viewBox="0 0 22 23" fill="none" xmlns="http://www.w3.org/2000/svg">
<g clip-path="url(#clip0_2959_31315)">
<mask id="path-1-outside-1_2959_31315" maskUnits="userSpaceOnUse" x="0.145752" y="0.1875" width="23" height="23" fill="black">
<rect fill="white" x="0.145752" y="0.1875" width="23" height="23"/>
<path fill-rule="evenodd" clip-rule="evenodd" d="M21.0579 22.0417C20.798 22.0417 20.5382 21.9115 20.4082 21.7814L1.4381 2.78166C1.0483 2.39125 1.0483 1.87071 1.4381 1.4803C1.8279 1.0899 2.34763 1.0899 2.73743 1.4803L21.7076 20.48C22.0974 20.8704 22.0974 21.391 21.7076 21.7814C21.5776 21.9115 21.3178 22.0417 21.0579 22.0417ZM7.54493 14.3637L1.4381 20.4801C1.0483 20.8705 1.0483 21.391 1.4381 21.7814C1.56803 21.9115 1.8279 22.0417 2.08776 22.0417C2.34763 22.0417 2.60749 21.9115 2.73743 21.7814L8.84425 15.6651L7.54493 14.3637ZM21.7075 2.78166L15.6007 8.89801L14.3013 7.59666L20.4082 1.4803C20.798 1.0899 21.3177 1.0899 21.7075 1.4803C22.0973 1.87071 22.0973 2.39125 21.7075 2.78166Z"/>
</mask>
<path fill-rule="evenodd" clip-rule="evenodd" d="M21.0579 22.0417C20.798 22.0417 20.5382 21.9115 20.4082 21.7814L1.4381 2.78166C1.0483 2.39125 1.0483 1.87071 1.4381 1.4803C1.8279 1.0899 2.34763 1.0899 2.73743 1.4803L21.7076 20.48C22.0974 20.8704 22.0974 21.391 21.7076 21.7814C21.5776 21.9115 21.3178 22.0417 21.0579 22.0417ZM7.54493 14.3637L1.4381 20.4801C1.0483 20.8705 1.0483 21.391 1.4381 21.7814C1.56803 21.9115 1.8279 22.0417 2.08776 22.0417C2.34763 22.0417 2.60749 21.9115 2.73743 21.7814L8.84425 15.6651L7.54493 14.3637ZM21.7075 2.78166L15.6007 8.89801L14.3013 7.59666L20.4082 1.4803C20.798 1.0899 21.3177 1.0899 21.7075 1.4803C22.0973 1.87071 22.0973 2.39125 21.7075 2.78166Z" fill="#37424a"/>
<path d="M20.4082 21.7814L20.2667 21.9227L20.2667 21.9227L20.4082 21.7814ZM1.4381 2.78166L1.29657 2.92297L1.29657 2.92297L1.4381 2.78166ZM1.4381 1.4803L1.29657 1.33899L1.4381 1.4803ZM2.73743 1.4803L2.59589 1.62162L2.59589 1.62162L2.73743 1.4803ZM21.7076 20.48L21.8491 20.3387L21.8491 20.3387L21.7076 20.48ZM21.7076 21.7814L21.8491 21.9227L21.8491 21.9227L21.7076 21.7814ZM1.4381 20.4801L1.29657 20.3387L1.29657 20.3387L1.4381 20.4801ZM7.54493 14.3637L7.68646 14.2224L7.54493 14.0806L7.4034 14.2224L7.54493 14.3637ZM1.4381 21.7814L1.57963 21.6401L1.57963 21.6401L1.4381 21.7814ZM2.73743 21.7814L2.59589 21.6401L2.59589 21.6401L2.73743 21.7814ZM8.84425 15.6651L8.98579 15.8064L9.12688 15.6651L8.98579 15.5237L8.84425 15.6651ZM15.6007 8.89801L15.4591 9.03932L15.6007 9.18107L15.7422 9.03932L15.6007 8.89801ZM21.7075 2.78166L21.566 2.64034L21.566 2.64035L21.7075 2.78166ZM14.3013 7.59666L14.1598 7.45535L14.0187 7.59666L14.1598 7.73797L14.3013 7.59666ZM20.4082 1.4803L20.5497 1.62162L20.5497 1.62162L20.4082 1.4803ZM21.7075 1.4803L21.566 1.62162L21.566 1.62162L21.7075 1.4803ZM20.2667 21.9227C20.4316 22.0878 20.7414 22.2417 21.0579 22.2417V21.8417C20.8547 21.8417 20.6447 21.7352 20.5498 21.6401L20.2667 21.9227ZM1.29657 2.92297L20.2667 21.9227L20.5498 21.6401L1.57963 2.64035L1.29657 2.92297ZM1.29657 1.33899C1.06955 1.56636 0.945752 1.84317 0.945752 2.13098C0.945752 2.41879 1.06955 2.6956 1.29657 2.92297L1.57963 2.64035C1.41685 2.47731 1.34575 2.29864 1.34575 2.13098C1.34575 1.96332 1.41685 1.78465 1.57963 1.62162L1.29657 1.33899ZM2.87896 1.33899C2.65195 1.11163 2.37543 0.9875 2.08776 0.9875C1.80009 0.9875 1.52358 1.11163 1.29657 1.33899L1.57963 1.62162C1.74242 1.45857 1.92067 1.3875 2.08776 1.3875C2.25485 1.3875 2.4331 1.45857 2.59589 1.62162L2.87896 1.33899ZM21.8491 20.3387L2.87896 1.33899L2.59589 1.62162L21.566 20.6214L21.8491 20.3387ZM21.8491 21.9227C22.0761 21.6953 22.1999 21.4185 22.1999 21.1307C22.1999 20.8429 22.0761 20.5661 21.8491 20.3387L21.566 20.6214C21.7288 20.7844 21.7999 20.9631 21.7999 21.1307C21.7999 21.2984 21.7288 21.477 21.566 21.6401L21.8491 21.9227ZM21.0579 22.2417C21.3744 22.2417 21.6842 22.0878 21.8491 21.9227L21.566 21.6401C21.4711 21.7352 21.2612 21.8417 21.0579 21.8417V22.2417ZM1.57963 20.6214L7.68646 14.505L7.4034 14.2224L1.29657 20.3387L1.57963 20.6214ZM1.57963 21.6401C1.41685 21.4771 1.34575 21.2984 1.34575 21.1307C1.34575 20.9631 1.41685 20.7844 1.57963 20.6214L1.29657 20.3387C1.06955 20.5661 0.945752 20.8429 0.945752 21.1307C0.945752 21.4185 1.06955 21.6954 1.29657 21.9227L1.57963 21.6401ZM2.08776 21.8417C1.88451 21.8417 1.67461 21.7352 1.57963 21.6401L1.29657 21.9227C1.46146 22.0879 1.77128 22.2417 2.08776 22.2417V21.8417ZM2.59589 21.6401C2.50092 21.7352 2.29101 21.8417 2.08776 21.8417V22.2417C2.40424 22.2417 2.71407 22.0879 2.87896 21.9227L2.59589 21.6401ZM8.70272 15.5237L2.59589 21.6401L2.87896 21.9227L8.98579 15.8064L8.70272 15.5237ZM7.4034 14.505L8.70272 15.8064L8.98579 15.5237L7.68646 14.2224L7.4034 14.505ZM15.7422 9.03932L21.849 2.92297L21.566 2.64035L15.4591 8.7567L15.7422 9.03932ZM14.1598 7.73797L15.4591 9.03932L15.7422 8.7567L14.4429 7.45535L14.1598 7.73797ZM20.2666 1.33899L14.1598 7.45535L14.4429 7.73797L20.5497 1.62162L20.2666 1.33899ZM21.849 1.33899C21.622 1.11163 21.3455 0.9875 21.0578 0.9875C20.7702 0.9875 20.4936 1.11163 20.2666 1.33899L20.5497 1.62162C20.7125 1.45857 20.8907 1.3875 21.0578 1.3875C21.2249 1.3875 21.4032 1.45857 21.566 1.62162L21.849 1.33899ZM21.849 2.92297C22.076 2.6956 22.1998 2.41879 22.1998 2.13098C22.1998 1.84317 22.076 1.56636 21.849 1.33899L21.566 1.62162C21.7287 1.78465 21.7998 1.96332 21.7998 2.13098C21.7998 2.29864 21.7287 2.47731 21.566 2.64034L21.849 2.92297Z" fill="#007cbf" mask="url(#path-1-outside-1_2959_31315)"/>
</g>
<defs>
<clipPath id="clip0_2959_31315">
<rect width="22" height="22" fill="white" transform="translate(0 0.5)"/>
</clipPath>
</defs>
</svg>
