<svg width="21" height="21" viewBox="0 0 21 21" fill="none" xmlns="http://www.w3.org/2000/svg">
<g clip-path="url(#clip0_897_28350)">
<path d="M14.2339 13.1744L13.6627 12.6326L14.2339 13.1754V13.1744ZM17.8522 19.1667L17.2799 18.6239L17.8511 19.1667H17.8522ZM16.4599 19.9122L16.5376 20.6945L16.4599 19.9112V19.9122ZM1.83967 5.17126C1.83409 5.06798 1.80822 4.96682 1.76354 4.87354C1.71885 4.78026 1.65624 4.69669 1.57926 4.62761C1.50228 4.55853 1.41245 4.50529 1.3149 4.47093C1.21734 4.43656 1.11398 4.42175 1.0107 4.42734C0.907421 4.43292 0.806254 4.45879 0.712975 4.50347C0.619695 4.54816 0.53613 4.61077 0.46705 4.68775C0.39797 4.76473 0.344729 4.85456 0.310365 4.95211C0.276002 5.04967 0.261189 5.15303 0.266774 5.25631L1.83967 5.17126ZM2.85397 1.14661C2.71607 1.29901 2.64321 1.49928 2.65096 1.70466C2.6587 1.91004 2.74643 2.10426 2.89541 2.24584C3.04439 2.38742 3.24283 2.46515 3.44833 2.46243C3.65384 2.4597 3.85015 2.37674 3.99532 2.23126L2.85397 1.14661ZM9.09727 18.7026C9.18484 18.759 9.28273 18.7975 9.38528 18.8159C9.48783 18.8342 9.593 18.832 9.6947 18.8094C9.79639 18.7868 9.89259 18.7443 9.97773 18.6842C10.0629 18.6242 10.1352 18.5478 10.1907 18.4596C10.2461 18.3714 10.2835 18.2731 10.3006 18.1704C10.3178 18.0676 10.3144 17.9625 10.2906 17.861C10.2668 17.7596 10.2232 17.6639 10.1622 17.5795C10.1012 17.495 10.024 17.4235 9.93517 17.3691L9.09727 18.7026ZM13.7687 18.9609C13.5642 18.9182 13.351 18.9584 13.1762 19.0728C13.0013 19.1872 12.8791 19.3664 12.8363 19.571C12.7936 19.7755 12.8338 19.9886 12.9482 20.1635C13.0626 20.3384 13.2418 20.4606 13.4464 20.5034L13.7687 18.9609ZM14.3273 14.2212L14.8051 13.7172L13.6627 12.6326L13.1849 13.1366L14.3273 14.2212ZM16.379 13.5051L18.3845 14.6601L19.1699 13.2951L17.1644 12.1401L16.379 13.5051ZM18.772 17.0541L17.2799 18.6239L18.4223 19.7096L19.9133 18.1388L18.772 17.0541ZM6.67702 14.657C2.60722 10.3719 1.92472 6.75676 1.83967 5.17126L0.266774 5.25631C0.371774 7.19881 1.19497 11.172 5.53567 15.7416L6.67702 14.657ZM8.12182 7.68811L8.42212 7.37101L7.28077 6.28636L6.97942 6.60346L8.12182 7.68811ZM8.65942 3.42301L7.33537 1.55086L6.04912 2.46016L7.37212 4.33231L8.65942 3.42301ZM7.54957 7.14526C7.3606 6.96314 7.16984 6.78289 6.97732 6.60451L6.97522 6.60661L6.97207 6.60976C6.95343 6.62905 6.93591 6.64938 6.91957 6.67066C6.81665 6.8069 6.7352 6.9581 6.67807 7.11901C6.57517 7.40776 6.52057 7.78996 6.58987 8.26666C6.72637 9.20326 7.34062 10.4622 8.94397 12.1517L10.0864 11.066C8.58697 9.48781 8.21737 8.51656 8.14807 8.03776C8.11447 7.80676 8.14807 7.68601 8.16172 7.64716L8.17012 7.62721C8.16153 7.64103 8.15169 7.65404 8.14072 7.66606C8.13457 7.67319 8.12827 7.68124 8.12182 7.68811L7.54957 7.14526ZM8.94397 12.1506C10.5431 13.8348 11.7506 14.4963 12.6715 14.6465C13.145 14.7231 13.5283 14.6612 13.8181 14.5467C13.9786 14.4837 14.1279 14.395 14.2601 14.2842L14.2979 14.2485L14.3126 14.2338C14.3151 14.2317 14.3175 14.2296 14.32 14.2275L14.3231 14.2244L14.3242 14.2223C14.3242 14.2223 14.3263 14.2212 13.7551 13.6784C13.1839 13.1366 13.1849 13.1355 13.1849 13.1345L13.187 13.1334L13.1891 13.1303L13.1954 13.125C13.2113 13.1097 13.2278 13.095 13.2448 13.0809C13.2542 13.0746 13.2532 13.0767 13.2395 13.082C13.2185 13.0904 13.124 13.124 12.9245 13.0914C12.5024 13.0221 11.591 12.6504 10.0864 11.066L8.94397 12.1506ZM7.33537 1.55086C6.27067 0.0451606 4.14127 -0.209989 2.85397 1.14661L3.99532 2.23126C4.54447 1.65376 5.51152 1.69891 6.04912 2.46016L7.33537 1.55086ZM17.2799 18.6239C16.987 18.9326 16.6814 19.0985 16.3832 19.1279L16.5376 20.6945C17.3219 20.6178 17.9572 20.1999 18.4223 19.7096L17.2799 18.6249V18.6239ZM8.42212 7.37101C9.43852 6.30106 9.50992 4.62736 8.65942 3.42301L7.37317 4.33231C7.81627 4.95916 7.74802 5.79496 7.28077 6.28636L8.42212 7.37101ZM18.3845 14.6601C19.2466 15.1568 19.4156 16.3769 18.772 17.0541L19.9133 18.1388C21.2836 16.6961 20.8835 14.2821 19.1699 13.2951L18.3845 14.6601ZM14.8051 13.7172C15.2093 13.2909 15.8404 13.1954 16.379 13.5051L17.1644 12.1401C16.0105 11.4765 14.5814 11.6666 13.6627 12.6326L14.8051 13.7172ZM9.93517 17.3691C8.90302 16.7202 7.80367 15.8424 6.67702 14.657L5.53567 15.7416C6.74737 17.0174 7.94752 17.9802 9.09727 18.7026L9.93517 17.3691ZM16.3822 19.1279C15.5076 19.2047 14.6264 19.1484 13.7687 18.9609L13.4464 20.5034C14.4612 20.7232 15.5034 20.7876 16.5376 20.6945L16.3832 19.1279H16.3822Z" fill="#F57B20"/>
</g>
<defs>
<clipPath id="clip0_897_28350">
<rect width="21" height="21" fill="white"/>
</clipPath>
</defs>
</svg>
