<svg width="16" height="20" viewBox="0 0 16 20" fill="none" xmlns="http://www.w3.org/2000/svg">
<g clip-path="url(#clip0_4829_2372)">
<path d="M0.699846 7.97352C0.698989 8.04186 0.711411 8.10974 0.736441 8.17326C0.761558 8.237 0.798895 8.29515 0.846379 8.34426C0.893868 8.39338 0.950564 8.43249 1.01323 8.45923C1.07589 8.48596 1.14322 8.49976 1.21127 8.49976C1.27933 8.49976 1.34665 8.48596 1.40932 8.45923C1.47198 8.43249 1.52868 8.39338 1.57617 8.34426L1.50427 8.27475C1.54255 8.23516 1.57274 8.1882 1.59307 8.1366C1.6134 8.08501 1.62347 8.02981 1.6227 7.97421H1.7227C1.7227 7.97399 1.7227 7.97377 1.7227 7.97356C1.72305 4.51046 4.52403 1.70839 7.99983 1.70839C11.4758 1.70839 14.2769 4.51081 14.2769 7.97421C14.2769 9.27421 13.8833 10.4822 13.2067 11.4831C13.2038 11.4861 13.2002 11.4902 13.1965 11.4953L13.1965 11.4953L13.1954 11.497C12.6738 12.2527 11.9357 13.0116 11.1443 13.8254C10.9648 14.01 10.7826 14.1973 10.5996 14.3881C9.65416 15.3734 8.69162 16.4453 7.99982 17.673C7.30802 16.4453 6.34549 15.3734 5.4001 14.3881C5.21705 14.1973 5.03484 14.01 4.85538 13.8254C4.06391 13.0116 3.32587 12.2527 2.80428 11.497L2.72198 11.5538M0.699846 7.97352C0.699849 7.97329 0.699852 7.97305 0.699855 7.97282L0.799846 7.97421H0.699846C0.699846 7.97398 0.699846 7.97375 0.699846 7.97352ZM0.699846 7.97352C0.700221 3.93743 3.97757 0.669226 7.99983 0.669226C12.0223 0.669228 15.2998 3.9378 15.2998 7.97421C15.2998 9.48517 14.8381 10.8913 14.0525 12.0567L14.0524 12.0638L14.035 12.089C13.4055 13.0035 12.5606 13.8771 11.7096 14.757C11.4908 14.9833 11.2715 15.21 11.0554 15.438C9.99411 16.5573 9.00541 17.7091 8.47159 19.0066L8.47156 19.0067C8.43276 19.1007 8.36747 19.1813 8.28358 19.2382C8.19966 19.295 8.10095 19.3255 7.99983 19.3255C7.8987 19.3255 7.79999 19.295 7.71607 19.2382C7.63218 19.1813 7.56689 19.1007 7.52809 19.0067L7.52806 19.0066C6.99423 17.7091 6.00554 16.5573 4.94424 15.438C4.72814 15.21 4.50889 14.9833 4.29003 14.757C3.43905 13.8771 2.59417 13.0035 1.96462 12.089L1.94722 12.0638L1.94717 12.0567C1.51462 11.4151 1.18001 10.7027 0.967632 9.93702C0.946447 9.8713 0.938392 9.80196 0.943922 9.73307C0.949516 9.66336 0.968907 9.59547 1.00099 9.53347C1.03308 9.47147 1.07723 9.4166 1.13087 9.37225C1.18452 9.3279 1.24654 9.29501 1.31322 9.27566C1.3799 9.25631 1.44977 9.25093 1.5186 9.25988C1.58742 9.26882 1.65365 9.29188 1.71332 9.32759C1.77297 9.36329 1.82477 9.41087 1.86568 9.46736C1.90614 9.52323 1.93513 9.5867 1.95103 9.65399C2.13336 10.3113 2.41977 10.9309 2.79279 11.4829C2.79633 11.4866 2.80089 11.4918 2.80537 11.4986L2.72198 11.5538M2.72198 11.5538C3.24882 12.3171 3.99439 13.0837 4.78622 13.8978C5.90935 15.0526 7.12556 16.3031 7.94274 17.7758L1.85413 9.67875C2.04021 10.3504 2.33332 10.9835 2.71555 11.5472C2.71639 11.5485 2.71758 11.5495 2.71877 11.5505C2.71996 11.5515 2.72115 11.5525 2.72198 11.5538ZM13.2153 11.4751L13.2151 11.4752L13.2153 11.4751ZM7.99983 4.02587C5.78899 4.02587 3.99127 5.86205 3.99127 8.11188C3.99127 10.3617 5.78899 12.1979 7.99983 12.1979C10.2107 12.1979 12.0084 10.3617 12.0084 8.11188C12.0084 5.86206 10.2107 4.02587 7.99983 4.02587ZM7.99983 5.06503C9.65182 5.06503 10.9855 6.42231 10.9855 8.11188C10.9855 9.80141 9.65181 11.1587 7.99983 11.1587C6.34784 11.1587 5.01412 9.80141 5.01412 8.11188C5.01412 6.4223 6.34783 5.06503 7.99983 5.06503Z" fill="#F57B20" stroke="#F57B20" stroke-width="0.2"/>
</g>
<defs>
<clipPath id="clip0_4829_2372">
<rect width="16" height="20" fill="white"/>
</clipPath>
</defs>
</svg>
