<svg width="38" height="39" viewBox="0 0 38 39" fill="none" xmlns="http://www.w3.org/2000/svg">
<circle cx="19" cy="19.6709" r="19" fill="#007CBF"/>
<path d="M13.0299 15.4042H15.8V25.6709H13.0299V15.4042ZM21.4812 15.4052C20.4667 15.4052 19.9608 15.8886 19.5333 16.2162V15.4042H16.7483V25.6709H19.5333V19.2076C19.5333 19.2076 19.4316 17.9205 20.9744 17.9205C21.904 17.9205 22.3333 18.4497 22.3333 19.2076V25.6709H25.2677V19.2981C25.2677 15.7981 22.45 15.4052 21.4812 15.4052ZM13 13.0709C13 13.2547 13.0362 13.4368 13.1066 13.6067C13.1769 13.7765 13.28 13.9308 13.4101 14.0608C13.5401 14.1908 13.6944 14.294 13.8642 14.3643C14.0341 14.4347 14.2161 14.4709 14.4 14.4709C14.5839 14.4709 14.7659 14.4347 14.9358 14.3643C15.1056 14.294 15.2599 14.1908 15.3899 14.0608C15.52 13.9308 15.6231 13.7765 15.6934 13.6067C15.7638 13.4368 15.8 13.2547 15.8 13.0709C15.8 12.887 15.7638 12.705 15.6934 12.5351C15.6231 12.3653 15.52 12.211 15.3899 12.0809C15.2599 11.9509 15.1056 11.8478 14.9358 11.7775C14.7659 11.7071 14.5839 11.6709 14.4 11.6709C14.2161 11.6709 14.0341 11.7071 13.8642 11.7775C13.6944 11.8478 13.5401 11.9509 13.4101 12.0809C13.28 12.211 13.1769 12.3653 13.1066 12.5351C13.0362 12.705 13 12.887 13 13.0709V13.0709Z" fill="white"/>
</svg>
