<svg width="1728" height="2408" viewBox="0 0 1728 2408" fill="none" xmlns="http://www.w3.org/2000/svg">
<path d="M3053.99 -8560.56L3303.34 -9633.23L-2478.07 2407.01L-29.3342 1086.12C180.61 1112.86 392.086 1126.18 603.762 1126.01C1763.01 1125.19 2888.76 741.232 3802.33 35.0869C4715.9 -671.059 5364.95 -1658.93 5646.43 -2771.72C5927.91 -3884.51 5825.7 -5058.46 5356.03 -6107.21C4886.36 -7155.97 4076.15 -8019.44 3053.99 -8560.56ZM1157.71 -363.324L2712.06 -7080.09C3336.45 -6662.83 3818.62 -6068.36 4095.18 -5374.85C4371.74 -4681.33 4429.74 -3921.24 4261.56 -3194.49C4093.38 -2467.74 3706.89 -1808.37 3152.91 -1303.06C2598.92 -797.74 1903.38 -470.14 1157.71 -363.324Z" fill="#003A70" fill-opacity="0.05"/>
</svg>
