<svg width="38" height="39" viewBox="0 0 38 39" fill="none" xmlns="http://www.w3.org/2000/svg">
<circle cx="19" cy="19.6709" r="19" fill="#007CBF"/>
<path d="M16.5004 19.6709C16.5004 18.2902 17.6193 17.1707 19 17.1707C20.3807 17.1707 21.5002 18.2902 21.5002 19.6709C21.5002 21.0516 20.3807 22.1711 19 22.1711C17.6193 22.1711 16.5004 21.0516 16.5004 19.6709ZM15.1488 19.6709C15.1488 21.7979 16.873 23.5221 19 23.5221C21.127 23.5221 22.8512 21.7979 22.8512 19.6709C22.8512 17.5439 21.127 15.8197 19 15.8197C16.873 15.8197 15.1488 17.5439 15.1488 19.6709ZM22.1036 15.6671C22.1036 16.1638 22.5065 16.5673 23.0038 16.5673C23.5006 16.5673 23.9041 16.1638 23.9041 15.6671C23.9041 15.1703 23.5012 14.7674 23.0038 14.7674C22.5065 14.7674 22.1036 15.1703 22.1036 15.6671ZM15.9697 25.7757C15.2385 25.7424 14.8411 25.6206 14.5769 25.5176C14.2268 25.3813 13.9772 25.219 13.7143 24.9566C13.4519 24.6943 13.289 24.4447 13.1533 24.0946C13.0503 23.8304 12.9285 23.433 12.8952 22.7018C12.8588 21.9112 12.8516 21.6737 12.8516 19.6709C12.8516 17.6681 12.8595 17.4312 12.8952 16.64C12.9285 15.9088 13.0509 15.512 13.1533 15.2472C13.2896 14.8971 13.4519 14.6475 13.7143 14.3845C13.9766 14.1222 14.2262 13.9593 14.5769 13.8236C14.8411 13.7206 15.2385 13.5988 15.9697 13.5655C16.7603 13.5291 16.9978 13.5219 19 13.5219C21.0028 13.5219 21.2397 13.5297 22.0309 13.5655C22.7621 13.5988 23.1589 13.7212 23.4237 13.8236C23.7738 13.9593 24.0234 14.1222 24.2863 14.3845C24.5487 14.6469 24.711 14.8971 24.8473 15.2472C24.9503 15.5114 25.0721 15.9088 25.1054 16.64C25.1418 17.4312 25.149 17.6681 25.149 19.6709C25.149 21.6731 25.1418 21.9106 25.1054 22.7018C25.0721 23.433 24.9497 23.8304 24.8473 24.0946C24.711 24.4447 24.5487 24.6943 24.2863 24.9566C24.024 25.219 23.7738 25.3813 23.4237 25.5176C23.1595 25.6206 22.7621 25.7424 22.0309 25.7757C21.2403 25.8121 21.0028 25.8193 19 25.8193C16.9978 25.8193 16.7603 25.8121 15.9697 25.7757V25.7757ZM15.9079 12.2163C15.1095 12.2527 14.5642 12.3793 14.0874 12.5647C13.5943 12.7561 13.1763 13.013 12.7589 13.4298C12.3421 13.8466 12.0852 14.2646 11.8938 14.7583C11.7084 15.2351 11.5818 15.7803 11.5454 16.5788C11.5085 17.3785 11.5 17.6341 11.5 19.6709C11.5 21.7077 11.5085 21.9633 11.5454 22.763C11.5818 23.5614 11.7084 24.1067 11.8938 24.5835C12.0852 25.0766 12.3415 25.4952 12.7589 25.912C13.1757 26.3288 13.5937 26.5851 14.0874 26.7771C14.5648 26.9625 15.1095 27.0891 15.9079 27.1255C16.7082 27.1618 16.9632 27.1709 19 27.1709C21.0374 27.1709 21.2924 27.1624 22.0921 27.1255C22.8905 27.0891 23.4358 26.9625 23.9126 26.7771C24.4057 26.5851 24.8237 26.3288 25.2411 25.912C25.6579 25.4952 25.9142 25.0766 26.1062 24.5835C26.2916 24.1067 26.4188 23.5614 26.4546 22.763C26.4909 21.9627 26.4994 21.7077 26.4994 19.6709C26.4994 17.6341 26.4909 17.3785 26.4546 16.5788C26.4182 15.7803 26.2916 15.2351 26.1062 14.7583C25.9142 14.2652 25.6579 13.8472 25.2411 13.4298C24.8243 13.013 24.4057 12.7561 23.9132 12.5647C23.4358 12.3793 22.8905 12.2521 22.0927 12.2163C21.293 12.18 21.0374 12.1709 19.0006 12.1709C16.9632 12.1709 16.7082 12.1794 15.9079 12.2163" fill="white"/>
</svg>
