<svg width="12" height="17" viewBox="0 0 12 17" fill="none" xmlns="http://www.w3.org/2000/svg">
<path fill-rule="evenodd" clip-rule="evenodd" d="M11.7007 6.09521C11.7007 7.0744 11.4389 7.99242 10.9814 8.7831L7.62055 15.5048C7.06341 16.619 5.4694 16.6078 4.92798 15.4858L1.78512 8.97294C1.25671 8.14093 0.950684 7.15381 0.950684 6.09521C0.950684 3.12668 3.35715 0.720215 6.32568 0.720215C9.29421 0.720215 11.7007 3.12668 11.7007 6.09521ZM6.32568 8.5271C7.82721 8.5271 9.04443 7.30987 9.04443 5.80835C9.04443 4.30683 7.82721 3.0896 6.32568 3.0896C4.82416 3.0896 3.60693 4.30683 3.60693 5.80835C3.60693 7.30987 4.82416 8.5271 6.32568 8.5271Z" fill="#007CBF"/>
</svg>
