<svg width="220" height="51" viewBox="0 0 220 51" fill="none" xmlns="http://www.w3.org/2000/svg">
<path d="M9.40223 33.7014C5.95805 33.7014 3.74573 30.8903 3.74573 26.2383C3.74573 21.5863 6.1466 18.8747 9.49022 18.8747C10.2275 18.8885 10.954 19.0524 11.6245 19.3563C12.2949 19.6602 12.8949 20.0975 13.3869 20.641L15.3353 18.315C14.5774 17.5097 13.6614 16.866 12.6434 16.4233C11.6254 15.9806 10.5268 15.7481 9.4148 15.7402C4.21082 15.7402 -0.0126953 19.6957 -0.0126953 26.3503C-0.0126953 33.0049 4.08512 36.8235 9.25138 36.8235C10.4864 36.8463 11.7105 36.5918 12.8318 36.0791C13.953 35.5663 14.9422 34.8087 15.7249 33.8631L13.7766 31.5993C13.2455 32.243 12.579 32.7645 11.8236 33.1275C11.0682 33.4906 10.2419 33.6864 9.40223 33.7014Z" fill="#37424A"/>
<path d="M25.2027 20.8154C21.3563 20.8154 17.8618 23.7509 17.8618 28.8383C17.8618 33.9256 21.3563 36.8362 25.2027 36.8362C29.0491 36.8362 32.5436 33.9007 32.5436 28.8383C32.5436 23.7758 29.024 20.8154 25.2027 20.8154ZM25.2027 33.9132C22.9401 33.9132 21.5825 31.8981 21.5825 28.8383C21.5825 25.7784 22.9401 23.7385 25.2027 23.7385C27.4653 23.7385 28.8228 25.7784 28.8228 28.8383C28.8228 31.8981 27.4653 33.9132 25.2027 33.9132Z" fill="#37424A"/>
<path d="M44.3468 20.8158C42.2351 20.8158 40.7015 21.9229 39.4068 23.1294L39.5577 20.1815V14.4971H35.9375V36.4634H39.5577V25.7912C40.8147 24.5474 41.7197 23.8881 43.0772 23.8881C44.7491 23.8881 45.4781 24.8335 45.4781 27.346V36.4634H49.0983V26.8858C49.0983 23.0236 47.6527 20.8158 44.3468 20.8158Z" fill="#37424A"/>
<path d="M61.882 20.8154C59.7702 20.8154 58.199 21.9224 56.8163 23.2534H56.7157L56.4392 21.1886H53.4727V36.463H57.0928V25.7908C58.3498 24.547 59.2549 23.8877 60.6124 23.8877C62.2842 23.8877 63.0133 24.8331 63.0133 27.3456V36.463H66.6334V26.8854C66.6334 23.0232 65.1879 20.8154 61.882 20.8154Z" fill="#37424A"/>
<path d="M85.4695 22.1586C85.4695 17.6186 82.1762 16.126 77.9275 16.126H71.014V36.4629H74.6593V28.5147H77.8018L82.2013 36.4629H86.2992L81.3591 27.9985C83.8291 27.1403 85.4695 25.2434 85.4695 22.1586ZM74.6216 19.0117H77.5253C80.341 19.0117 81.8745 19.8202 81.8745 22.1586C81.8745 24.4971 80.341 25.629 77.5253 25.629H74.6216V19.0117Z" fill="#37424A"/>
<path d="M95.0165 20.8154C91.3837 20.8154 87.9019 23.8753 87.9019 28.8383C87.9019 33.8012 91.2455 36.8362 95.5067 36.8362C97.397 36.8136 99.2383 36.238 100.799 35.1819L99.5417 32.9554C98.4813 33.6604 97.2366 34.045 95.9592 34.0624C93.4452 34.0624 91.7106 32.52 91.4089 29.8085H101.207C101.315 29.2342 101.367 28.6511 101.364 28.0671C101.408 23.8007 99.2086 20.8154 95.0165 20.8154ZM91.4152 27.3767C91.7294 24.9263 93.3007 23.5954 95.1107 23.5954C97.2225 23.5954 98.2532 25.0259 98.2532 27.3767H91.4152Z" fill="#37424A"/>
<path d="M115.336 23.105V21.1895H104.337V24.0379H110.798L103.52 34.5484V36.4639H115.581V33.6155H108.058L115.336 23.105Z" fill="#37424A"/>
<path d="M127.46 20.8154C125.348 20.8154 123.777 21.9224 122.394 23.2534H122.293L122.017 21.1886H119.05V36.463H122.67V25.7908C123.927 24.547 124.833 23.8877 126.19 23.8877C127.862 23.8877 128.591 24.8331 128.591 27.3456V36.463H132.211V26.8854C132.211 23.0232 130.766 20.8154 127.46 20.8154Z" fill="#37424A"/>
<path d="M137.83 18.5149C139.066 18.5149 140.067 17.6072 140.067 16.4874C140.067 15.3677 139.066 14.46 137.83 14.46C136.594 14.46 135.592 15.3677 135.592 16.4874C135.592 17.6072 136.594 18.5149 137.83 18.5149Z" fill="#37424A"/>
<path d="M139.627 21.1895H136.007V36.4639H139.627V21.1895Z" fill="#37424A"/>
<path d="M151.028 33.9134C148.628 33.9134 146.931 31.8983 146.931 28.8385C146.931 25.7786 148.653 23.7387 151.142 23.7387C152.11 23.772 153.028 24.1729 153.706 24.8582L155.466 22.5321C154.235 21.4157 152.622 20.8024 150.953 20.8156C146.843 20.8156 143.21 23.7511 143.21 28.8385C143.21 33.9258 146.44 36.8364 150.651 36.8364C152.501 36.839 154.288 36.1759 155.679 34.9706L154.209 32.6073C153.335 33.3959 152.21 33.8578 151.028 33.9134Z" fill="#37424A"/>
<path d="M166.766 27.4082L172.058 21.189H168.098L162.379 28.2167H162.279V14.4971H158.734V36.4634H162.279V32.5826L164.692 29.8337L168.664 36.4634H172.598L166.766 27.4082Z" fill="#37424A"/>
<path d="M152.442 46.5266C153.046 46.5266 153.536 46.0421 153.536 45.4445C153.536 44.8468 153.046 44.3623 152.442 44.3623C151.838 44.3623 151.349 44.8468 151.349 45.4445C151.349 46.0421 151.838 46.5266 152.442 46.5266Z" fill="#37424A"/>
<path d="M91.434 46.5198C92.038 46.5198 92.5276 46.0353 92.5276 45.4376C92.5276 44.84 92.038 44.3555 91.434 44.3555C90.8301 44.3555 90.3405 44.84 90.3405 45.4376C90.3405 46.0353 90.8301 46.5198 91.434 46.5198Z" fill="#37424A"/>
<path d="M140.639 48.2738C140.299 48.2763 139.962 48.2129 139.646 48.0872C139.342 47.9659 139.07 47.779 138.848 47.54C138.612 47.2793 138.43 46.9749 138.314 46.6444C138.174 46.2448 138.108 45.8234 138.119 45.4005C138.114 44.9878 138.182 44.5774 138.32 44.1878C138.44 43.8523 138.626 43.5437 138.867 43.2798C139.093 43.0362 139.37 42.8432 139.678 42.7138C139.992 42.5836 140.33 42.518 140.671 42.521C140.998 42.5136 141.322 42.5862 141.613 42.7325C141.865 42.8565 142.092 43.0228 142.286 43.2238L141.758 43.8457C141.618 43.7039 141.457 43.5843 141.28 43.4912C141.101 43.4027 140.903 43.3579 140.702 43.3606C140.485 43.3572 140.271 43.4038 140.076 43.4966C139.88 43.5895 139.71 43.726 139.577 43.8955C139.43 44.081 139.319 44.2919 139.25 44.5174C139.171 44.7882 139.133 45.069 139.137 45.3508C139.106 45.8779 139.252 46.4003 139.552 46.8372C139.76 47.0939 140.051 47.2719 140.376 47.341C140.701 47.4101 141.041 47.3661 141.337 47.2165C141.535 47.1075 141.715 46.969 141.871 46.8061L142.399 47.428C142.187 47.6877 141.921 47.8997 141.62 48.0499C141.314 48.1958 140.979 48.2723 140.639 48.2738Z" fill="#37424A"/>
<path d="M115.814 48.2245C115.514 48.2296 115.217 48.1833 114.934 48.0877C114.678 47.9948 114.449 47.841 114.267 47.6399C114.07 47.4143 113.924 47.1491 113.84 46.8625C113.734 46.484 113.686 46.0921 113.695 45.6995V42.5898H114.682V45.7679C114.679 46.0231 114.707 46.2778 114.764 46.5266C114.807 46.7044 114.886 46.8716 114.996 47.0179C115.089 47.1348 115.21 47.2268 115.348 47.2854C115.497 47.3424 115.655 47.3699 115.814 47.3662C115.972 47.3686 116.13 47.3412 116.279 47.2854C116.424 47.2305 116.552 47.1382 116.649 47.0179C116.762 46.872 116.843 46.7048 116.888 46.5266C116.949 46.2783 116.976 46.0232 116.97 45.7679V42.5898H117.919V45.6995C117.929 46.0921 117.88 46.484 117.774 46.8625C117.695 47.1497 117.551 47.4154 117.353 47.6399C117.173 47.8424 116.944 47.9964 116.687 48.0877C116.406 48.1834 116.111 48.2297 115.814 48.2245Z" fill="#37424A"/>
<path d="M96.3301 48.1744L98.1464 42.6455H99.3092L101.132 48.1744H100.089L99.6548 46.6756H97.7693L97.3294 48.1744H96.3301ZM98.2156 45.2327L98.0145 45.9106H99.416L99.2212 45.2327C99.1332 44.9404 99.0452 44.6108 98.9635 44.3309C98.8818 44.0511 98.8001 43.709 98.7184 43.4043H98.6807C98.6052 43.7152 98.5236 44.0262 98.4418 44.3309C98.3601 44.6357 98.291 44.9404 98.203 45.2327H98.2156Z" fill="#37424A"/>
<path d="M125.612 48.1744L127.428 42.6455H128.591L130.414 48.1744H129.37L128.955 46.6569H127.07L126.636 48.1558L125.612 48.1744ZM127.497 45.2327L127.302 45.9106H128.729L128.534 45.2327C128.44 44.9404 128.358 44.6108 128.27 44.3309C128.182 44.0511 128.107 43.709 128.032 43.4043H127.994C127.918 43.7152 127.837 44.0262 127.755 44.3309C127.673 44.6357 127.573 44.9404 127.478 45.2327H127.497Z" fill="#37424A"/>
<path d="M119.918 48.1744V42.6455H121.803C122.076 42.6448 122.348 42.674 122.614 42.7326C122.839 42.7839 123.052 42.8767 123.242 43.0062C123.428 43.1348 123.577 43.3082 123.676 43.51C123.79 43.7532 123.844 44.0196 123.833 44.2874C123.852 44.6513 123.745 45.0107 123.531 45.3074C123.327 45.5704 123.046 45.7656 122.727 45.8671L124.059 48.1744H122.947L121.759 46.035H120.904V48.1993L119.918 48.1744ZM120.904 45.2327H121.703C122.012 45.2518 122.319 45.1687 122.576 44.9964C122.68 44.9102 122.761 44.801 122.813 44.6778C122.866 44.5546 122.888 44.4208 122.878 44.2874C122.892 44.159 122.872 44.0291 122.819 43.9111C122.766 43.7931 122.682 43.6911 122.576 43.6157C122.307 43.4762 122.005 43.4117 121.703 43.4292H120.904V45.2327Z" fill="#37424A"/>
<path d="M43.7937 48.1438L45.6101 42.6211H46.7728L48.5954 48.1438H47.5521L47.1185 46.6512H45.233L44.793 48.1438H43.7937ZM45.6792 45.2083L45.4781 45.88H46.9048L46.7099 45.2083C46.622 44.9098 46.534 44.5864 46.4523 44.3003C46.3706 44.0142 46.2888 43.6784 46.2071 43.3798H46.1694C46.094 43.6908 46.0123 44.0018 45.9306 44.3065C45.8489 44.6112 45.7546 44.9098 45.6666 45.2083H45.6792Z" fill="#37424A"/>
<path d="M50.1416 48.143V42.6204H51.65C52.021 42.5796 52.3965 42.6228 52.7481 42.7467C53.0997 42.8705 53.4184 43.0719 53.6799 43.3354C53.9414 43.599 54.1389 43.9179 54.2576 44.2681C54.3763 44.6182 54.4131 44.9905 54.3651 45.3568C54.3717 45.7662 54.3101 46.1738 54.1828 46.5634C54.0726 46.8912 53.8901 47.1907 53.6486 47.4403C53.4155 47.6786 53.1292 47.8596 52.8127 47.9689C52.4551 48.0909 52.0785 48.1499 51.7003 48.143H50.1416ZM51.1284 47.3532H51.5683C51.8085 47.3687 52.0493 47.3335 52.2747 47.2498C52.5001 47.1662 52.7049 47.0361 52.8756 46.8681C53.2164 46.44 53.3803 45.8999 53.3344 45.3568C53.3833 44.823 53.2185 44.2915 52.8756 43.8766C52.7015 43.7145 52.4957 43.5895 52.2708 43.5093C52.0459 43.429 51.8068 43.3953 51.5683 43.4102H51.1284V47.3532Z" fill="#37424A"/>
<path d="M57.2499 48.1438L55.5027 42.6211H56.5586L57.3442 45.4011C57.4322 45.7121 57.5139 46.023 57.583 46.2967C57.6522 46.5703 57.7401 46.8813 57.8344 47.1985H57.8721C57.9664 46.8813 58.0544 46.5765 58.1235 46.2967C58.1927 46.0168 58.2744 45.7121 58.3561 45.4011L59.1354 42.6211H60.1536L58.4189 48.1438H57.2499Z" fill="#37424A"/>
<path d="M61.7059 48.1438V42.6211H62.699V48.1438H61.7059Z" fill="#37424A"/>
<path d="M66.5768 48.2487C66.2021 48.247 65.831 48.1753 65.4832 48.0372C65.1376 47.8908 64.8239 47.6796 64.5593 47.4153L65.1375 46.7498C65.3396 46.9367 65.571 47.0901 65.8226 47.2038C66.063 47.3146 66.3242 47.3739 66.5894 47.378C66.8482 47.3953 67.1052 47.3252 67.3184 47.1789C67.3979 47.1185 67.4617 47.0401 67.5043 46.9503C67.5469 46.8605 67.5673 46.7619 67.5636 46.6628C67.5659 46.5638 67.5444 46.4657 67.5007 46.3767C67.4579 46.2964 67.3978 46.2263 67.3247 46.1714C67.2391 46.1055 67.1463 46.0492 67.0482 46.0035L66.7025 45.8542L65.9357 45.5246C65.794 45.4653 65.6573 45.3946 65.5272 45.3132C65.3944 45.2256 65.2721 45.1234 65.1627 45.0084C65.0517 44.8864 64.9643 44.7451 64.905 44.5917C64.8369 44.4194 64.8027 44.2357 64.8044 44.0507C64.8017 43.8349 64.8513 43.6216 64.949 43.4287C65.0432 43.2383 65.1758 43.069 65.3387 42.9312C65.5138 42.7869 65.714 42.6752 65.9295 42.6016C66.173 42.5232 66.4275 42.4833 66.6837 42.4834C67.0081 42.4819 67.3292 42.5476 67.6264 42.6762C67.9165 42.7957 68.181 42.9688 68.4057 43.1862L67.8967 43.8081C67.726 43.6688 67.538 43.5517 67.3373 43.4598C67.1386 43.3762 66.9247 43.3339 66.7088 43.3355C66.487 43.3278 66.268 43.3863 66.0803 43.5034C66.0045 43.5583 65.9433 43.6306 65.9017 43.7139C65.8601 43.7973 65.8394 43.8893 65.8415 43.9823C65.8385 44.0789 65.8648 44.1742 65.9169 44.2559C65.9682 44.3358 66.0343 44.4055 66.1117 44.4611C66.2035 44.5226 66.3002 44.5767 66.4008 44.6228L66.7339 44.7597L67.4944 45.0768C67.654 45.138 67.8058 45.2173 67.9469 45.3132C68.0797 45.3983 68.1984 45.5032 68.2989 45.6241C68.4025 45.7458 68.4834 45.8848 68.5377 46.0346C68.5962 46.2068 68.6239 46.3878 68.6194 46.5695C68.6197 46.7843 68.5725 46.9965 68.4812 47.1914C68.3911 47.3931 68.2556 47.5718 68.0852 47.7138C67.9008 47.871 67.6874 47.9914 67.4567 48.0683C67.1767 48.1802 66.8787 48.2413 66.5768 48.2487Z" fill="#37424A"/>
<path d="M104.444 48.2739C104.071 48.2759 103.701 48.204 103.357 48.0625C103.008 47.918 102.692 47.7066 102.426 47.4405L103.011 46.7689C103.209 46.9576 103.439 47.1112 103.69 47.2229C103.931 47.3363 104.195 47.3958 104.463 47.397C104.719 47.4153 104.973 47.3473 105.185 47.2042C105.266 47.1444 105.331 47.0663 105.375 46.9765C105.419 46.8866 105.44 46.7877 105.437 46.688C105.439 46.5883 105.416 46.4897 105.368 46.4019C105.326 46.3194 105.266 46.2471 105.192 46.1905C105.105 46.1276 105.013 46.0734 104.915 46.0288L104.57 45.8733L103.803 45.5437C103.662 45.4868 103.527 45.4159 103.401 45.3322C103.123 45.1625 102.903 44.913 102.772 44.617C102.706 44.4442 102.674 44.2606 102.678 44.0759C102.675 43.8608 102.722 43.648 102.816 43.454C102.911 43.2658 103.044 43.0987 103.206 42.9627C103.38 42.8168 103.58 42.705 103.797 42.6331C104.041 42.5511 104.299 42.5111 104.557 42.5149C104.879 42.5149 105.197 42.5783 105.493 42.7015C105.784 42.8237 106.048 42.9988 106.273 43.2177L105.77 43.8396C105.597 43.701 105.407 43.584 105.204 43.4913C105.005 43.4097 104.792 43.3674 104.576 43.3669C104.353 43.3565 104.132 43.4176 103.947 43.5411C103.838 43.6293 103.761 43.7516 103.73 43.8882C103.7 44.0247 103.716 44.1676 103.778 44.2936C103.831 44.3722 103.896 44.4416 103.972 44.4988C104.064 44.5593 104.161 44.6113 104.262 44.6543L104.595 44.7974L105.355 45.1083C105.512 45.1745 105.664 45.2536 105.808 45.3447C105.94 45.43 106.059 45.5348 106.16 45.6556C106.263 45.7773 106.344 45.9163 106.398 46.0661C106.457 46.2404 106.485 46.4235 106.48 46.6072C106.485 46.8265 106.44 47.0441 106.347 47.2435C106.255 47.4429 106.118 47.6187 105.946 47.7577C105.762 47.9149 105.548 48.0353 105.317 48.1122C105.038 48.217 104.742 48.2718 104.444 48.2739Z" fill="#37424A"/>
<path d="M110.006 48.274C109.633 48.2755 109.264 48.2036 108.919 48.0625C108.57 47.9181 108.254 47.7067 107.989 47.4406L108.573 46.7689C108.774 46.9578 109.005 47.1114 109.258 47.2229C109.497 47.3371 109.759 47.3966 110.025 47.3971C110.281 47.4163 110.536 47.3483 110.748 47.2043C110.828 47.1445 110.893 47.0664 110.937 46.9765C110.981 46.8867 111.002 46.7878 110.999 46.6881C111.002 46.5891 110.98 46.491 110.936 46.402C110.89 46.3206 110.828 46.2488 110.754 46.1905C110.669 46.1289 110.578 46.0748 110.484 46.0288L110.138 45.8733L109.365 45.5437C109.224 45.4869 109.089 45.416 108.963 45.3323C108.826 45.2498 108.703 45.147 108.598 45.0275C108.489 44.9067 108.402 44.7678 108.341 44.6171C108.269 44.4456 108.235 44.2613 108.24 44.076C108.237 43.8609 108.284 43.648 108.378 43.4541C108.473 43.2659 108.606 43.0988 108.768 42.9627C108.944 42.8156 109.146 42.7036 109.365 42.6331C109.608 42.5507 109.863 42.5107 110.119 42.515C110.441 42.5143 110.759 42.5778 111.056 42.7015C111.347 42.8218 111.612 42.9972 111.835 43.2177L111.332 43.8397C111.159 43.701 110.969 43.5841 110.767 43.4914C110.567 43.4097 110.354 43.3675 110.138 43.367C109.915 43.3566 109.695 43.4177 109.51 43.5411C109.433 43.5949 109.37 43.6669 109.329 43.7506C109.287 43.8342 109.267 43.9268 109.271 44.02C109.269 44.1157 109.293 44.2101 109.34 44.2937C109.395 44.3724 109.463 44.4418 109.541 44.4989C109.629 44.5606 109.724 44.6127 109.824 44.6544L110.157 44.7974L110.917 45.1084C111.075 45.1746 111.226 45.2536 111.37 45.3447C111.503 45.4316 111.624 45.5362 111.728 45.6557C111.828 45.7792 111.906 45.9178 111.961 46.0661C112.021 46.2401 112.051 46.4232 112.049 46.6072C112.046 46.8217 111.999 47.0333 111.91 47.2292C111.814 47.4255 111.68 47.6009 111.515 47.7453C111.328 47.9001 111.115 48.0202 110.886 48.0998C110.606 48.2096 110.308 48.2686 110.006 48.274Z" fill="#37424A"/>
<path d="M72.6231 48.2488C72.2796 48.2519 71.9392 48.1841 71.6237 48.0498C71.3238 47.9167 71.0575 47.7191 70.8444 47.4714C70.6196 47.2034 70.4489 46.8951 70.3416 46.5634C70.218 46.1731 70.1586 45.7658 70.1656 45.3568C70.1584 44.952 70.2179 44.5487 70.3416 44.1627C70.4474 43.8341 70.6183 43.5296 70.8444 43.2672C71.0587 43.0269 71.3251 42.8377 71.6237 42.7137C71.9402 42.5823 72.2799 42.5146 72.6231 42.5146C72.9662 42.5146 73.3059 42.5823 73.6224 42.7137C73.922 42.836 74.1888 43.0254 74.4017 43.2672C74.6311 43.5298 74.8023 43.837 74.9045 44.169C75.0304 44.5546 75.0919 44.9579 75.0868 45.3631C75.0919 45.7723 75.0303 46.1797 74.9045 46.5696C74.7976 46.9028 74.6245 47.2115 74.3954 47.4776C74.1835 47.7266 73.917 47.9244 73.6161 48.056C73.3021 48.1874 72.964 48.253 72.6231 48.2488ZM72.6231 47.3968C72.8319 47.3998 73.0378 47.3483 73.2201 47.2475C73.4022 47.1488 73.5574 47.0079 73.6727 46.837C73.807 46.6491 73.905 46.4383 73.9618 46.2151C74.0352 45.9412 74.0711 45.6588 74.0686 45.3755C74.0951 44.8601 73.9589 44.3494 73.6789 43.914C73.556 43.7518 73.3966 43.6201 73.2133 43.5295C73.03 43.4388 72.828 43.3916 72.6231 43.3916C72.4182 43.3916 72.2161 43.4388 72.0328 43.5295C71.8495 43.6201 71.6901 43.7518 71.5672 43.914C71.2872 44.3494 71.1511 44.8601 71.1775 45.3755C71.175 45.6588 71.2109 45.9412 71.2844 46.2151C71.3411 46.4383 71.4392 46.6491 71.5735 46.837C71.6887 47.0079 71.8439 47.1488 72.026 47.2475C72.2083 47.3483 72.4142 47.3998 72.6231 47.3968Z" fill="#37424A"/>
<path d="M77.0665 48.143V42.6203H78.952C79.2245 42.6176 79.4964 42.6447 79.7628 42.7012C79.9875 42.7535 80.2005 42.8463 80.3913 42.9748C80.5724 43.1065 80.7189 43.2793 80.8187 43.4786C80.9316 43.722 80.9854 43.9882 80.9758 44.256C80.9932 44.6217 80.8871 44.9827 80.6741 45.2821C80.4673 45.5415 80.1873 45.7341 79.8696 45.8356L81.202 48.143H80.0896L78.8829 45.9787H78.047V48.143H77.0665ZM78.0533 45.2075H78.8515C79.1621 45.2277 79.4704 45.1421 79.7251 44.9649C79.8284 44.8788 79.9096 44.7696 79.9621 44.6464C80.0145 44.5231 80.0367 44.3893 80.0268 44.256C80.0408 44.1285 80.0202 43.9997 79.9672 43.8827C79.9141 43.7658 79.8306 43.6649 79.7251 43.5905C79.4564 43.451 79.1544 43.3865 78.8515 43.4039H78.047L78.0533 45.2075Z" fill="#37424A"/>
<path d="M83.8417 48.1438V46.0914L82.1636 42.6211H83.2257L83.8542 44.0329C83.9359 44.2381 84.0177 44.4371 84.0931 44.6548L84.3508 45.2767H84.3319L84.6022 44.6548L84.8473 44.0329L85.4758 42.6211H86.5128L84.8284 46.0914V48.1438H83.8417Z" fill="#37424A"/>
<path d="M159.123 48.1744V43.4727H157.508V42.6455H161.725V43.4727H160.129V48.1744H159.123Z" fill="#37424A"/>
<path d="M162.341 48.1744L164.164 42.6455H165.327L167.143 48.1744H166.1L165.666 46.6756H163.781L163.347 48.1744H162.341ZM164.227 45.2327L164.032 45.9106H165.459L165.264 45.2327C165.17 44.9404 165.082 44.6108 165 44.3309L164.755 43.4043H164.723C164.642 43.7152 164.566 44.0262 164.484 44.3309C164.403 44.6357 164.309 44.9404 164.214 45.2327H164.227Z" fill="#37424A"/>
<path d="M168.092 48.1744L169.682 45.326L168.193 42.6455H169.299L169.927 43.8894L170.128 44.2874C170.191 44.4242 170.267 44.5735 170.355 44.7352C170.424 44.5735 170.487 44.4242 170.549 44.2874C170.612 44.1506 170.669 44.02 170.732 43.8894L171.323 42.6455H172.372L170.883 45.3695L172.473 48.1744H171.373L170.688 46.8746L170.468 46.4393C170.399 46.2962 170.323 46.1345 170.235 45.9666C170.16 46.1345 170.091 46.2962 170.022 46.4393C169.952 46.5823 169.89 46.7253 169.82 46.8746L169.154 48.1744H168.092Z" fill="#2D2E30"/>
<path d="M132.28 48.1744V42.6455H133.298L135.039 45.7551L135.611 46.9306H135.649C135.649 46.6445 135.599 46.3087 135.567 46.0039C135.536 45.6992 135.517 45.382 135.517 45.0461V42.6455H136.497V48.1744H135.479L133.738 45.0648L133.166 43.8894C133.166 44.1817 133.217 44.5113 133.248 44.8098C133.279 45.1083 133.292 45.4317 133.292 45.7551V48.1744H132.28Z" fill="#37424A"/>
<path d="M143.907 42.6455H147.27V43.4727H144.9V44.8907H146.905V45.7116H144.9V47.3473H147.358V48.1744H143.907V42.6455Z" fill="#37424A"/>
<path d="M208.423 4.51516L209.472 0L185.137 50.6806L195.444 45.1206C196.328 45.2332 197.218 45.2893 198.109 45.2885C202.989 45.2851 207.727 43.6689 211.573 40.6966C215.418 37.7242 218.15 33.566 219.335 28.882C220.52 24.1979 220.09 19.2565 218.113 14.842C216.136 10.4275 212.725 6.7929 208.423 4.51516ZM200.441 39.0195L206.984 10.7469C209.612 12.5032 211.641 15.0055 212.806 17.9247C213.97 20.8439 214.214 24.0433 213.506 27.1024C212.798 30.1615 211.171 32.937 208.839 35.064C206.507 37.191 203.58 38.5699 200.441 39.0195Z" fill="#F57B20"/>
<path d="M200.202 10.7092L182.422 24.9388C182.391 24.5035 182.359 24.0681 182.359 23.6266C182.353 21.264 182.892 18.9312 183.933 16.8053C184.975 14.6795 186.493 12.8165 188.371 11.3578C190.249 9.89921 192.438 8.88328 194.773 8.38725C197.107 7.89122 199.525 7.92813 201.843 8.49515L205.739 3.33316C201.302 1.68555 196.444 1.50828 191.896 2.82802C187.348 4.14776 183.357 6.89315 180.522 10.6512C177.686 14.4092 176.161 18.9766 176.175 23.6664C176.189 28.3561 177.742 32.9145 180.599 36.6559L200.202 10.7092Z" fill="#F57B20"/>
</svg>
