<svg width="426" height="202" viewBox="0 0 426 202" fill="none" xmlns="http://www.w3.org/2000/svg">
<path opacity="0.05" d="M91.283 -2771.35L194.695 -3216L-2203 1775L-1187.45 1227.45C-1100.38 1238.54 -1012.68 1244.06 -924.888 1243.99C-444.119 1243.65 22.7581 1084.49 401.64 791.775C780.521 499.059 1049.7 89.5596 1166.43 -371.721C1283.17 -833.002 1240.78 -1319.63 1046 -1754.37C851.215 -2189.11 515.199 -2547.04 91.283 -2771.35ZM-695.152 626.623L-50.5217 -2157.66C208.427 -1984.69 408.396 -1738.27 523.092 -1450.79C637.788 -1163.31 661.843 -848.226 592.095 -546.97C522.347 -245.715 362.058 27.6125 132.306 237.079C-97.4453 446.546 -385.906 582.345 -695.152 626.623Z" fill="#003A70"/>
</svg>
