<svg width="16" height="16" viewBox="0 0 16 16" fill="none" xmlns="http://www.w3.org/2000/svg">
<g id="icon-phone" clip-path="url(#clip0_833_20990)">
<path id="Vector" d="M10.8446 10.0376L10.4094 9.62477L10.8446 10.0384V10.0376ZM13.6014 14.6032L13.1654 14.1896L13.6006 14.6032H13.6014ZM12.5406 15.1712L12.5998 15.7672L12.5406 15.1704V15.1712ZM1.40142 3.93997C1.39717 3.86129 1.37746 3.78421 1.34341 3.71314C1.30937 3.64207 1.26166 3.5784 1.20301 3.52576C1.14436 3.47313 1.07592 3.43257 1.00159 3.40639C0.927267 3.3802 0.848512 3.36892 0.769824 3.37317C0.691136 3.37743 0.614056 3.39714 0.542986 3.43118C0.471916 3.46523 0.408247 3.51294 0.355615 3.57159C0.302983 3.63023 0.262418 3.69868 0.236236 3.773C0.210055 3.84733 0.198769 3.92609 0.203024 4.00477L1.40142 3.93997ZM2.17422 0.873573C2.06916 0.989685 2.01364 1.14227 2.01954 1.29875C2.02544 1.45523 2.09228 1.60321 2.20579 1.71108C2.31931 1.81895 2.47049 1.87817 2.62707 1.8761C2.78365 1.87402 2.93321 1.81082 3.04382 1.69997L2.17422 0.873573ZM6.93102 14.2496C6.99774 14.2926 7.07233 14.3219 7.15046 14.3359C7.22859 14.3498 7.30872 14.3482 7.3862 14.3309C7.46369 14.3137 7.53698 14.2813 7.60185 14.2356C7.66671 14.1898 7.72185 14.1317 7.76408 14.0645C7.80631 13.9972 7.83479 13.9223 7.84786 13.844C7.86093 13.7658 7.85834 13.6857 7.84023 13.6084C7.82213 13.5311 7.78887 13.4582 7.74238 13.3938C7.6959 13.3295 7.63711 13.275 7.56942 13.2336L6.93102 14.2496ZM10.4902 14.4464C10.3344 14.4138 10.172 14.4445 10.0388 14.5316C9.90553 14.6188 9.81239 14.7553 9.77982 14.9112C9.74726 15.067 9.77793 15.2294 9.86509 15.3626C9.95226 15.4959 10.0888 15.589 10.2446 15.6216L10.4902 14.4464ZM10.9158 10.8352L11.2798 10.4512L10.4094 9.62477L10.0454 10.0088L10.9158 10.8352ZM12.479 10.2896L14.007 11.1696L14.6054 10.1296L13.0774 9.24957L12.479 10.2896ZM14.3022 12.9936L13.1654 14.1896L14.0358 15.0168L15.1718 13.82L14.3022 12.9936ZM5.08702 11.1672C1.98622 7.90237 1.46622 5.14797 1.40142 3.93997L0.203024 4.00477C0.283024 5.48477 0.910224 8.51197 4.21742 11.9936L5.08702 11.1672ZM6.18782 5.85757L6.41662 5.61597L5.54702 4.78957L5.31742 5.03117L6.18782 5.85757ZM6.59742 2.60797L5.58862 1.18157L4.60862 1.87437L5.61662 3.30077L6.59742 2.60797ZM5.75182 5.44397C5.60784 5.30522 5.4625 5.16788 5.31582 5.03197L5.31422 5.03357L5.31182 5.03597C5.29762 5.05067 5.28427 5.06616 5.27182 5.08237C5.1934 5.18617 5.13135 5.30138 5.08782 5.42397C5.00942 5.64397 4.96782 5.93517 5.02062 6.29837C5.12462 7.01197 5.59262 7.97117 6.81422 9.25837L7.68462 8.43117C6.54222 7.22877 6.26062 6.48877 6.20782 6.12397C6.18222 5.94797 6.20782 5.85597 6.21822 5.82637L6.22462 5.81117C6.21808 5.82171 6.21058 5.83161 6.20222 5.84077C6.19754 5.84621 6.19273 5.85234 6.18782 5.85757L5.75182 5.44397ZM6.81422 9.25757C8.03262 10.5408 8.95262 11.0448 9.65422 11.1592C10.015 11.2176 10.307 11.1704 10.5278 11.0832C10.6502 11.0351 10.7639 10.9676 10.8646 10.8832L10.8934 10.856L10.9046 10.8448C10.9065 10.8432 10.9084 10.8416 10.9102 10.84L10.9126 10.8376L10.9134 10.836C10.9134 10.836 10.915 10.8352 10.4798 10.4216C10.0446 10.0088 10.0454 10.008 10.0454 10.0072L10.047 10.0064L10.0486 10.004L10.0534 9.99997C10.0655 9.98829 10.0781 9.97708 10.091 9.96637C10.0982 9.96157 10.0974 9.96317 10.087 9.96717C10.071 9.97357 9.99902 9.99917 9.84702 9.97437C9.52542 9.92157 8.83102 9.63837 7.68462 8.43117L6.81422 9.25757ZM5.58862 1.18157C4.77742 0.0343732 3.15502 -0.160027 2.17422 0.873573L3.04382 1.69997C3.46222 1.25997 4.19902 1.29437 4.60862 1.87437L5.58862 1.18157ZM13.1654 14.1896C12.9422 14.4248 12.7094 14.5512 12.4822 14.5736L12.5998 15.7672C13.1974 15.7088 13.6814 15.3904 14.0358 15.0168L13.1654 14.1904V14.1896ZM6.41662 5.61597C7.19102 4.80077 7.24542 3.52557 6.59742 2.60797L5.61742 3.30077C5.95502 3.77837 5.90302 4.41517 5.54702 4.78957L6.41662 5.61597ZM14.007 11.1696C14.6638 11.548 14.7926 12.4776 14.3022 12.9936L15.1718 13.82C16.2158 12.7208 15.911 10.8816 14.6054 10.1296L14.007 11.1696ZM11.2798 10.4512C11.5878 10.1264 12.0686 10.0536 12.479 10.2896L13.0774 9.24957C12.1982 8.74397 11.1094 8.88877 10.4094 9.62477L11.2798 10.4512ZM7.56942 13.2336C6.78302 12.7392 5.94542 12.0704 5.08702 11.1672L4.21742 11.9936C5.14062 12.9656 6.05502 13.6992 6.93102 14.2496L7.56942 13.2336ZM12.4814 14.5736C11.8151 14.6321 11.1437 14.5892 10.4902 14.4464L10.2446 15.6216C11.0178 15.789 11.8119 15.8381 12.5998 15.7672L12.4822 14.5736H12.4814Z" fill="#F57B20"/>
</g>
<defs>
<clipPath id="clip0_833_20990">
<rect width="16" height="16" fill="white"/>
</clipPath>
</defs>
</svg>
