<svg width="20" height="21" viewBox="0 0 20 21" fill="none" xmlns="http://www.w3.org/2000/svg">
<g id="Group 860">
<path id="Union" fill-rule="evenodd" clip-rule="evenodd" d="M0.969697 0.0610352C0.434148 0.0610352 0 0.510624 0 1.06522V14.4543C0 15.0089 0.434148 15.4585 0.969697 15.4585H9.18687V19.0569C9.18687 19.6114 9.62102 20.061 10.1566 20.061C10.6921 20.061 11.1263 19.6114 11.1263 19.0569V2.08117H18.0606V13.388H13.8586C13.323 13.388 12.8889 13.8375 12.8889 14.3921C12.8889 14.9467 13.323 15.3963 13.8586 15.3963H19.0303C19.5659 15.3963 20 14.9467 20 14.3921V1.07699C20 0.522391 19.5659 0.0728029 19.0303 0.0728029H10.3052C10.2567 0.0650549 10.2069 0.0610352 10.1563 0.0610352H0.969697ZM1.93939 13.4502V2.0694H9.1866V13.4502H1.93939Z" fill="#007CBF"/>
</g>
</svg>
