<svg width="17" height="17" viewBox="0 0 17 17" fill="none" xmlns="http://www.w3.org/2000/svg">
<rect x="4" y="8.48828" width="1.34209" height="5.09323" fill="#007CBF"/>
<rect x="7.7959" y="8.48828" width="1.34209" height="5.09323" fill="#007CBF"/>
<rect x="11.5918" y="8.48828" width="1.34209" height="5.09323" fill="#007CBF"/>
<rect y="14.6562" width="16.9341" height="2" rx="1" fill="#007CBF"/>
<mask id="path-5-outside-1_3925_2282" maskUnits="userSpaceOnUse" x="0.375488" y="0.688477" width="17" height="9" fill="black">
<rect fill="white" x="0.375488" y="0.688477" width="17" height="9"/>
<path fill-rule="evenodd" clip-rule="evenodd" d="M8.76956 2.78344C8.59219 2.65682 8.34313 2.65682 8.16577 2.78344L4.23778 5.58767H3.0018C2.6559 5.58767 2.37549 5.86808 2.37549 6.21398C2.37549 6.55988 2.6559 6.84029 3.0018 6.84029H13.9333C14.2792 6.84029 14.5596 6.55988 14.5596 6.21398C14.5596 5.86808 14.2792 5.58767 13.9333 5.58767H12.6975L8.76956 2.78344Z"/>
</mask>
<path d="M8.16577 2.78344L9.32784 4.4112L9.32784 4.4112L8.16577 2.78344ZM8.76956 2.78344L9.93163 1.15569L9.93163 1.15569L8.76956 2.78344ZM4.23778 5.58767V7.58767H4.87844L5.39985 7.21543L4.23778 5.58767ZM12.6975 5.58767L11.5355 7.21543L12.0569 7.58767H12.6975V5.58767ZM9.32784 4.4112C8.80998 4.7809 8.12534 4.7809 7.60749 4.4112L9.93163 1.15569C9.05904 0.532741 7.87628 0.532739 7.00369 1.15569L9.32784 4.4112ZM5.39985 7.21543L9.32784 4.4112L7.0037 1.15569L3.07571 3.95991L5.39985 7.21543ZM3.0018 7.58767H4.23778V3.58767H3.0018V7.58767ZM4.37549 6.21398C4.37549 6.97265 3.76047 7.58767 3.0018 7.58767V3.58767C1.55133 3.58767 0.375488 4.76351 0.375488 6.21398H4.37549ZM3.0018 4.84029C3.76046 4.84029 4.37549 5.45531 4.37549 6.21398H0.375488C0.375488 7.66445 1.55133 8.84029 3.0018 8.84029V4.84029ZM13.9333 4.84029H3.0018V8.84029H13.9333V4.84029ZM12.5596 6.21398C12.5596 5.45531 13.1746 4.84029 13.9333 4.84029V8.84029C15.3837 8.84029 16.5596 7.66445 16.5596 6.21398H12.5596ZM13.9333 7.58767C13.1746 7.58767 12.5596 6.97265 12.5596 6.21398H16.5596C16.5596 4.76351 15.3837 3.58767 13.9333 3.58767V7.58767ZM12.6975 7.58767H13.9333V3.58767H12.6975V7.58767ZM7.60749 4.4112L11.5355 7.21543L13.8596 3.95991L9.93163 1.15569L7.60749 4.4112Z" fill="#007CBF" mask="url(#path-5-outside-1_3925_2282)"/>
</svg>
