<svg width="60" height="54" viewBox="0 0 60 54" fill="none" xmlns="http://www.w3.org/2000/svg">
<path d="M4.59902 53.3271L0.799024 45.3271C4.93236 45.0605 7.73236 43.1271 9.19902 39.5271C10.799 35.9271 11.599 30.3938 11.599 22.9271H0.999024V0.327136H24.399C24.399 3.52714 24.399 6.79381 24.399 10.1271C24.399 13.3271 24.399 16.5271 24.399 19.7271C24.399 30.1271 22.9324 38.2605 19.999 44.1271C17.0657 49.8605 11.9324 52.9271 4.59902 53.3271ZM39.799 53.3271L35.999 45.3271C40.1324 45.0605 42.9324 43.1271 44.399 39.5271C45.999 35.9271 46.799 30.3938 46.799 22.9271H36.199V0.327136H59.599C59.599 3.52714 59.599 6.79381 59.599 10.1271C59.599 13.3271 59.599 16.5271 59.599 19.7271C59.599 30.1271 58.1324 38.2605 55.199 44.1271C52.2657 49.8605 47.1324 52.9271 39.799 53.3271Z" fill="#007CBF"/>
</svg>
