<svg xmlns="http://www.w3.org/2000/svg" width="21" height="15" viewBox="0 0 21 15" fill="none">
<g clip-path="url(#clip0_2392_2726)">
<path d="M5.72754 4.6875L10.5003 7.96875L15.273 4.6875" stroke="white" stroke-width="1.5" stroke-linecap="round" stroke-linejoin="round"/>
<path d="M0.95459 12.1875V2.8125C0.95459 2.31522 1.15573 1.83831 1.51375 1.48667C1.87177 1.13504 2.35736 0.9375 2.86368 0.9375H18.1364C18.6427 0.9375 19.1283 1.13504 19.4863 1.48667C19.8444 1.83831 20.0455 2.31522 20.0455 2.8125V12.1875C20.0455 12.6848 19.8444 13.1617 19.4863 13.5133C19.1283 13.865 18.6427 14.0625 18.1364 14.0625H2.86368C2.35736 14.0625 1.87177 13.865 1.51375 13.5133C1.15573 13.1617 0.95459 12.6848 0.95459 12.1875Z" stroke="white" stroke-width="1.5"/>
</g>
<defs>
<clipPath id="clip0_2392_2726">
<rect width="21" height="15" fill="white"/>
</clipPath>
</defs>
</svg>