<svg width="16" height="19" viewBox="0 0 16 19" fill="none" xmlns="http://www.w3.org/2000/svg">
<path id="Vector" d="M0.236457 5.68613H3.73557V18.6545H0.236457V5.68613ZM10.9118 5.68731C9.63031 5.68731 8.99132 6.298 8.45136 6.71181V5.68613H4.93338V18.6545H8.45136V10.4903C8.45136 10.4903 8.32286 8.86457 10.2717 8.86457C11.4459 8.86457 11.9882 9.53303 11.9882 10.4903V18.6545H15.6948V10.6047C15.6948 6.18364 12.1356 5.68731 10.9118 5.68731ZM0.19873 2.73876C0.19873 2.97099 0.244472 3.20095 0.333343 3.4155C0.422215 3.63006 0.552476 3.82501 0.716689 3.98922C0.880902 4.15343 1.07585 4.28369 1.29041 4.37257C1.50496 4.46144 1.73492 4.50718 1.96715 4.50718C2.19938 4.50718 2.42934 4.46144 2.6439 4.37257C2.85845 4.28369 3.0534 4.15343 3.21761 3.98922C3.38183 3.82501 3.51209 3.63006 3.60096 3.4155C3.68983 3.20095 3.73557 2.97099 3.73557 2.73876C3.73557 2.50653 3.68983 2.27657 3.60096 2.06201C3.51209 1.84746 3.38183 1.65251 3.21761 1.4883C3.0534 1.32408 2.85845 1.19382 2.6439 1.10495C2.42934 1.01608 2.19938 0.970337 1.96715 0.970337C1.73492 0.970337 1.50496 1.01608 1.29041 1.10495C1.07585 1.19382 0.880902 1.32408 0.716689 1.4883C0.552476 1.65251 0.422215 1.84746 0.333343 2.06201C0.244472 2.27657 0.19873 2.50653 0.19873 2.73876Z" fill="#007CBF"/>
</svg>
