<svg width="26" height="18" viewBox="0 0 26 18" fill="none" xmlns="http://www.w3.org/2000/svg">
<path d="M13.5017 0.257048L8.25675 0.352972C6.55855 0.386398 4.85613 0.319675 3.19124 0.665974C0.658543 1.18337 0.479118 3.72029 0.291369 5.84829C0.0326692 8.83998 0.132819 11.886 0.621019 14.8527C0.896623 16.5173 1.98124 17.5106 3.65856 17.6187C9.32075 18.011 15.0206 17.9645 20.6702 17.7815C21.2669 17.7647 21.8677 17.673 22.456 17.5687C25.3602 17.0596 25.4311 14.1847 25.6193 11.7646C25.8071 9.31947 25.7278 6.86182 25.3689 4.43338C25.0811 2.4227 24.5302 0.736538 22.2056 0.573763C19.2931 0.360912 16.4474 0.189556 13.5267 0.244114C13.5268 0.257048 13.51 0.257048 13.5017 0.257048ZM10.4182 5.34754C12.613 6.60773 14.766 7.84693 16.9483 9.09868C14.7493 10.3589 12.6005 11.5981 10.4182 12.8498V5.34754Z" fill="#007CBF"/>
</svg>
