<svg width="19" height="16" viewBox="0 0 19 16" fill="none" xmlns="http://www.w3.org/2000/svg">
<path d="M17.5522 1.02701C16.8515 1.44549 16.0746 1.74934 15.248 1.91406C14.586 1.20286 13.6434 0.759888 12.6001 0.759888C10.5965 0.759888 8.972 2.39599 8.972 4.41273C8.972 4.69877 9.00405 4.97813 9.06594 5.24525C6.05116 5.09277 3.37786 3.63809 1.58866 1.42768C1.27591 1.96637 1.09798 2.5941 1.09798 3.26412C1.09798 4.53182 1.73896 5.65038 2.71147 6.30481C2.11691 6.28478 1.55772 6.12006 1.06815 5.84626C1.06815 5.86184 1.06815 5.87631 1.06815 5.89189C1.06815 7.66155 2.31915 9.13849 3.97794 9.47462C3.67403 9.55809 3.35354 9.60261 3.02201 9.60261C2.78772 9.60261 2.56117 9.57924 2.33904 9.53694C2.80098 10.9883 4.14039 12.0445 5.72735 12.0746C4.4863 13.054 2.92144 13.6383 1.22176 13.6383C0.9289 13.6383 0.640462 13.6205 0.356445 13.5871C1.96219 14.6233 3.86853 15.2288 5.91744 15.2288C12.5902 15.2288 16.2393 9.6616 16.2393 4.83344C16.2393 4.67539 16.236 4.51735 16.2283 4.36042C16.9388 3.84733 17.5544 3.20402 18.0407 2.47167C17.3897 2.76216 16.6913 2.95916 15.9575 3.04709C16.7068 2.59521 17.2814 1.87844 17.5522 1.02701Z" fill="#007CBF"/>
</svg>
