<svg width="20" height="20" viewBox="0 0 20 20" fill="none" xmlns="http://www.w3.org/2000/svg">
<path id="Vector" d="M7.19911 10.0759C7.19911 8.33187 8.61251 6.91771 10.3565 6.91771C12.1005 6.91771 13.5146 8.33187 13.5146 10.0759C13.5146 11.8198 12.1005 13.234 10.3565 13.234C8.61251 13.234 7.19911 11.8198 7.19911 10.0759ZM5.49186 10.0759C5.49186 12.7626 7.66974 14.9405 10.3565 14.9405C13.0433 14.9405 15.2211 12.7626 15.2211 10.0759C15.2211 7.3891 13.0433 5.21122 10.3565 5.21122C7.66974 5.21122 5.49186 7.3891 5.49186 10.0759ZM14.2768 5.01838C14.2768 5.64588 14.7857 6.15553 15.414 6.15553C16.0415 6.15553 16.5511 5.64588 16.5511 5.01838C16.5511 4.39088 16.0422 3.882 15.414 3.882C14.7857 3.882 14.2768 4.39088 14.2768 5.01838ZM6.52876 17.7872C5.60512 17.7451 5.10312 17.5913 4.76947 17.4612C4.32716 17.289 4.01188 17.0839 3.67977 16.7526C3.34842 16.4212 3.14257 16.106 2.97116 15.6636C2.84106 15.33 2.68725 14.828 2.64516 13.9044C2.59925 12.9057 2.59007 12.6057 2.59007 10.0759C2.59007 7.54597 2.60001 7.24676 2.64516 6.24736C2.68725 5.32371 2.84183 4.82248 2.97116 4.48807C3.14333 4.04576 3.34842 3.73048 3.67977 3.39836C4.01112 3.06701 4.3264 2.86116 4.76947 2.68975C5.10312 2.55966 5.60512 2.40585 6.52876 2.36376C7.5274 2.31784 7.82738 2.30866 10.3565 2.30866C12.8864 2.30866 13.1856 2.31861 14.185 2.36376C15.1086 2.40585 15.6099 2.56042 15.9443 2.68975C16.3866 2.86116 16.7019 3.06701 17.034 3.39836C17.3653 3.72971 17.5704 4.04576 17.7426 4.48807C17.8727 4.82171 18.0265 5.32371 18.0686 6.24736C18.1145 7.24676 18.1237 7.54597 18.1237 10.0759C18.1237 12.605 18.1145 12.905 18.0686 13.9044C18.0265 14.828 17.8719 15.33 17.7426 15.6636C17.5704 16.106 17.3653 16.4212 17.034 16.7526C16.7026 17.0839 16.3866 17.289 15.9443 17.4612C15.6106 17.5913 15.1086 17.7451 14.185 17.7872C13.1864 17.8331 12.8864 17.8423 10.3565 17.8423C7.82738 17.8423 7.5274 17.8331 6.52876 17.7872ZM6.45071 0.659566C5.44212 0.70548 4.7534 0.865416 4.15116 1.09958C3.52825 1.3414 3.00023 1.66586 2.47298 2.19234C1.9465 2.71883 1.62204 3.24685 1.38022 3.87052C1.14606 4.47276 0.98612 5.16148 0.940206 6.17007C0.893526 7.18018 0.882812 7.50312 0.882812 10.0759C0.882812 12.6486 0.893526 12.9715 0.940206 13.9816C0.98612 14.9902 1.14606 15.679 1.38022 16.2812C1.62204 16.9041 1.94573 17.4329 2.47298 17.9594C2.99947 18.4859 3.52749 18.8096 4.15116 19.0521C4.75417 19.2863 5.44212 19.4462 6.45071 19.4921C7.46159 19.5381 7.78376 19.5495 10.3565 19.5495C12.93 19.5495 13.2522 19.5388 14.2623 19.4921C15.2709 19.4462 15.9596 19.2863 16.5618 19.0521C17.1847 18.8096 17.7128 18.4859 18.24 17.9594C18.7665 17.4329 19.0902 16.9041 19.3328 16.2812C19.5669 15.679 19.7276 14.9902 19.7728 13.9816C19.8187 12.9708 19.8294 12.6486 19.8294 10.0759C19.8294 7.50312 19.8187 7.18018 19.7728 6.17007C19.7269 5.16148 19.5669 4.47276 19.3328 3.87052C19.0902 3.24761 18.7665 2.71959 18.24 2.19234C17.7135 1.66586 17.1847 1.3414 16.5626 1.09958C15.9596 0.865416 15.2709 0.704715 14.2631 0.659566C13.2529 0.613651 12.93 0.602173 10.3573 0.602173C7.78376 0.602173 7.46159 0.612886 6.45071 0.659566Z" fill="#007CBF"/>
</svg>
