<svg width="32" height="32" viewBox="0 0 32 32" fill="none" xmlns="http://www.w3.org/2000/svg">
<path d="M2.6665 16C2.6665 22.2853 2.6665 25.4266 4.61984 27.38C6.57184 29.332 9.7145 29.332 15.9998 29.332C22.2852 29.332 25.4278 29.332 27.3812 27.38C29.1905 25.5706 29.3225 22.74 29.3332 17.332M14.6665 2.66663C9.25984 2.67596 6.42917 2.80929 4.61984 4.61863C3.5305 5.70663 3.04917 7.16529 2.83584 9.33329" stroke="white" stroke-width="2.5" stroke-linecap="round"/>
<path d="M17.3333 14.6666L29.3333 2.66663M29.3333 2.66663H22.208M29.3333 2.66663V9.79196M28 3.99996L16 16M16 16H21.3333M16 16V10.6666" stroke="white" stroke-width="2.5" stroke-linecap="round" stroke-linejoin="round"/>
</svg>
