<svg xmlns="http://www.w3.org/2000/svg" width="89px" height="31px" viewBox="0 0 89 31">
  <metadata><!--?xpacket begin="&#xFEFF;" id="W5M0MpCehiHzreSzNTczkc9d" /-->
<x:xmpmeta xmlns:x="adobe:ns:meta/" x:xmptk="Adobe XMP Core 5.6-c138 79.159824, 2016/09/14-01:09:01        ">
   <rdf:rdf xmlns:rdf="http://www.w3.org/1999/02/22-rdf-syntax-ns#">
      <rdf:description rdf:about=""></rdf:description>
   </rdf:rdf>
</x:xmpmeta>               
<!--?xpacket end="w" /--></metadata>
<defs>
    <style>
      .cls-1 {
        fill: #fff;
        fill-rule: evenodd;
      }
    </style>
  </defs>
  <path id="Icon_Glasses" class="cls-1" d="M61.096,26.672 C55.475,26.672 50.900,22.159 50.900,16.612 C50.900,13.466 52.110,10.251 61.096,10.251 C70.081,10.251 71.295,13.466 71.295,16.612 C71.295,22.159 66.720,26.672 61.096,26.672 M27.904,26.672 C22.279,26.672 17.704,22.159 17.704,16.612 C17.704,13.466 18.914,10.251 27.904,10.251 C36.889,10.251 38.100,13.466 38.100,16.612 C38.100,22.159 33.524,26.672 27.904,26.672 M88.682,5.919 C87.517,2.364 85.771,0.527 83.496,0.453 C79.756,0.339 76.002,6.234 73.529,11.223 C71.490,8.145 67.368,6.555 61.096,6.555 C52.755,6.555 48.157,9.331 47.325,14.764 L41.674,14.764 C40.843,9.331 36.245,6.555 27.904,6.555 C21.654,6.555 17.536,8.137 15.486,11.193 C12.960,5.982 9.378,0.461 5.500,0.453 C3.225,0.527 1.483,2.368 0.318,5.919 C-0.001,6.892 0.539,7.934 1.524,8.248 C2.517,8.573 3.562,8.026 3.881,7.058 C4.653,4.707 5.414,4.157 5.620,4.149 L5.638,4.149 C7.171,4.149 10.869,9.327 14.006,17.099 C14.276,24.454 20.383,30.368 27.904,30.368 C34.948,30.368 40.730,25.164 41.656,18.459 L47.340,18.459 C48.266,25.164 54.047,30.368 61.096,30.368 C68.616,30.368 74.724,24.454 74.990,17.099 C78.085,9.401 81.978,4.075 83.380,4.149 C83.582,4.157 84.347,4.704 85.119,7.058 C85.433,8.026 86.490,8.573 87.475,8.248 C88.461,7.934 89.001,6.892 88.682,5.919 "></path>
</svg>