<svg width="20" height="21" viewBox="0 0 20 21" fill="none" xmlns="http://www.w3.org/2000/svg">
<g id="Star 2">
<path id="Star 2_2" d="M3.56712 8.56608L7.02832 8.56608C7.89477 8.56608 8.66268 8.00816 8.93043 7.18411L10 3.89232L11.0696 7.18411C11.3373 8.00816 12.1052 8.56608 12.9717 8.56608H16.4329L13.6327 10.6005C12.9317 11.1098 12.6384 12.0125 12.9062 12.8366L13.9757 16.1284L11.1756 14.0939C10.4746 13.5847 9.5254 13.5847 8.82443 14.0939L6.02426 16.1284L7.09383 12.8366C7.36158 12.0125 7.06826 11.1098 6.36729 10.6005L3.56712 8.56608ZM3.56712 8.56608V7.56608L3.56712 8.56608L2.97933 9.3751L3.56712 8.56608Z" stroke="#007CBF" stroke-width="2"/>
</g>
</svg>
