<svg width="1512" height="250" viewBox="0 0 1512 250" fill="none" xmlns="http://www.w3.org/2000/svg">
<path opacity="0.12" d="M729.865 -3410.92L859.355 -3968L-2143 2285L-871.343 1599C-762.317 1612.89 -652.495 1619.81 -542.569 1619.72C59.4429 1619.29 644.059 1419.89 1118.49 1053.16C1592.92 686.431 1929.97 173.387 2076.15 -404.531C2222.33 -982.449 2169.25 -1592.13 1925.34 -2136.79C1681.44 -2681.45 1260.69 -3129.89 729.865 -3410.92ZM-254.897 846.25L552.299 -2642.05C876.551 -2425.34 1126.95 -2116.61 1270.57 -1756.44C1414.19 -1396.27 1444.31 -1001.52 1356.97 -624.093C1269.64 -246.663 1068.92 95.7769 781.233 358.208C493.542 620.64 132.336 790.776 -254.897 846.25Z" fill="#0D61AF"/>
</svg>
