<svg width="1359" height="305" viewBox="0 0 1359 305" fill="none" xmlns="http://www.w3.org/2000/svg">
<path opacity="0.12" d="M684.967 -3344.23L811.578 -3888.72L-2123.99 2222.87L-880.623 1552.39C-774.021 1565.96 -666.643 1572.72 -559.162 1572.64C29.4587 1572.22 601.07 1377.33 1064.95 1018.89C1528.82 660.452 1858.38 159.012 2001.31 -405.837C2144.23 -970.685 2092.33 -1566.58 1853.85 -2098.92C1615.38 -2631.26 1203.98 -3069.56 684.967 -3344.23ZM-277.889 816.657L511.352 -2592.75C828.391 -2380.95 1073.22 -2079.2 1213.64 -1727.18C1354.07 -1375.15 1383.52 -989.327 1298.13 -620.433C1212.73 -251.539 1016.49 83.1562 735.193 339.653C453.902 596.149 100.731 762.438 -277.889 816.657Z" fill="#003A70"/>
</svg>
