<svg width="390" height="340" viewBox="0 0 390 340" fill="none" xmlns="http://www.w3.org/2000/svg">
<path opacity="0.12" d="M326.156 -1602.36L385.119 -1856L-982 991L-402.953 678.665C-353.307 684.988 -303.3 688.138 -253.245 688.097C20.8799 687.903 287.084 597.115 503.115 430.142C719.146 263.169 872.624 29.5796 939.186 -233.547C1005.75 -496.674 981.577 -774.262 870.516 -1022.25C759.454 -1270.23 567.864 -1474.41 326.156 -1602.36ZM-122.255 335.935L245.301 -1252.29C392.949 -1153.63 506.967 -1013.06 572.365 -849.075C637.762 -685.089 651.478 -505.358 611.709 -333.514C571.94 -161.67 480.546 -5.75647 349.546 113.729C218.546 233.214 54.0718 310.678 -122.255 335.935Z" fill="#003A70"/>
</svg>
