<svg width="38" height="39" viewBox="0 0 38 39" fill="none" xmlns="http://www.w3.org/2000/svg">
<circle cx="19" cy="19.6709" r="19" fill="#007CBF"/>
<path d="M25.6133 14.8824C25.0586 15.2137 24.4436 15.4542 23.7892 15.5846C23.2651 15.0216 22.5188 14.6709 21.6929 14.6709C20.1067 14.6709 18.8206 15.9661 18.8206 17.5627C18.8206 17.7892 18.846 18.0103 18.895 18.2218C16.5083 18.1011 14.392 16.9495 12.9755 15.1996C12.7279 15.626 12.5871 16.123 12.5871 16.6534C12.5871 17.657 13.0945 18.5425 13.8644 19.0606C13.3937 19.0448 12.951 18.9144 12.5634 18.6976C12.5634 18.7099 12.5634 18.7214 12.5634 18.7337C12.5634 20.1347 13.5538 21.304 14.867 21.5701C14.6264 21.6361 14.3727 21.6714 14.1102 21.6714C13.9248 21.6714 13.7454 21.6529 13.5696 21.6194C13.9353 22.7684 14.9956 23.6046 16.252 23.6284C15.2695 24.4037 14.0306 24.8663 12.685 24.8663C12.4532 24.8663 12.2248 24.8522 12 24.8258C13.2712 25.6461 14.7804 26.1254 16.4024 26.1254C21.685 26.1254 24.5739 21.7181 24.5739 17.8958C24.5739 17.7707 24.5713 17.6456 24.5652 17.5213C25.1277 17.1151 25.615 16.6058 26 16.0261C25.4847 16.256 24.9318 16.412 24.3508 16.4816C24.944 16.1239 25.399 15.5564 25.6133 14.8824Z" fill="white"/>
</svg>
