<svg width="22" height="15" viewBox="0 0 22 15" fill="none" xmlns="http://www.w3.org/2000/svg">
<path d="M11.4487 0.68924L7.29646 0.76518C5.95206 0.791642 4.60431 0.73882 3.28626 1.01297C1.28121 1.42258 1.13917 3.43097 0.990534 5.11564C0.78573 7.48406 0.865016 9.89547 1.25151 12.2441C1.46969 13.562 2.32835 14.3483 3.65623 14.4339C8.13879 14.7445 12.6512 14.7076 17.1238 14.5628C17.5962 14.5495 18.0718 14.4769 18.5375 14.3943C20.8367 13.9912 20.8928 11.7153 21.0418 9.79936C21.1905 7.86366 21.1277 5.91802 20.8436 3.9955C20.6157 2.40371 20.1796 1.06884 18.3393 0.939973C16.0336 0.771466 13.7807 0.635809 11.4685 0.679C11.4686 0.68924 11.4553 0.68924 11.4487 0.68924ZM9.00758 4.71921C10.7452 5.71687 12.4496 6.6979 14.1773 7.68886C12.4364 8.68652 10.7352 9.66755 9.00758 10.6585V4.71921Z" fill="white"/>
</svg>
